%
M48
M72
T01C0.0118
T02C0.0236
T03C0.0315
T04C0.0320
T05C0.0394
T06C0.0866
%
T01
X5085Y4439
X9809Y4439
X10793Y4045
X13685Y4585
X14534Y4439
X15518Y3849
X13943Y5620
X12565Y6801
X11039Y6358
X10203Y6211
X14730Y7933
X12959Y8770
X14534Y8967
X16797Y6801
X17738Y5933
X19258Y6211
X19652Y4242
X24967Y6358
X26738Y4144
X20045Y8376
X23982Y10837
X23293Y11132
X21226Y12116
X21030Y11723
X21620Y12904
X19652Y13297
X18274Y13297
X18274Y13888
X16600Y15217
X18471Y15856
X19061Y15660
X20045Y15856
X20833Y16250
X21226Y15069
X23786Y15660
X21620Y14085
X18274Y11329
X18274Y10935
X14534Y13100
X10990Y14478
X9809Y14282
X7447Y13100
X7250Y12707
X9169Y12854
X8628Y11329
X9809Y11132
X9809Y9754
X9809Y9163
X5085Y8376
X5136Y10933
X10597Y15856
X12663Y16447
X12959Y16447
X10597Y17628
X11581Y17825
X12171Y17825
X14534Y17825
X19258Y17825
X9809Y17825
X37565Y11132
X42880Y9163
X49573Y8770
X49376Y5886
X49573Y13494
X49573Y18219
X38156Y13888
T02
X42880Y13888
X47604Y13888
X47604Y17825
X42880Y17825
X38156Y17825
X35793Y18612
X33431Y17825
X28707Y17825
X23982Y17825
X31856Y20581
X33431Y20384
X33431Y13888
X28707Y13888
X23982Y13691
X23982Y9163
X28707Y9163
X33431Y9163
X38156Y9163
X47604Y9163
X47604Y4439
X42880Y4439
X38156Y4439
X33431Y4439
X28707Y4439
X23982Y4439
X5085Y13888
X5085Y17825
T03
X5435Y20683
X4435Y20683
X3435Y20683
X6435Y20683
X7435Y20683
X8435Y20683
X9435Y20683
X10435Y20683
X11435Y20683
X12435Y20683
X13435Y20683
X14435Y20683
X15435Y20683
X16435Y20683
X17435Y20683
X18435Y20683
X19435Y20683
X20435Y20683
X21435Y20683
X22435Y20683
X50360Y18219
X50360Y13494
X50360Y8770
T04
X50435Y7433
X50435Y6433
X50435Y5433
X50435Y4433
X50435Y3433
X50435Y2433
X2435Y8933
X2435Y9933
X2435Y10933
X2435Y11933
X2435Y12933
X2435Y13933
T05
X28510Y20581
X30675Y20581
T06
X26345Y15856
X7447Y15856
X2526Y15856
X2526Y6408
X7447Y6408
X26345Y6408
X45242Y6408
X45045Y15856
X50163Y15856
M30
