G75*
G70*
%OFA0B0*%
%FSLAX24Y24*%
%IPPOS*%
%LPD*%
%AMOC8*
5,1,8,0,0,1.08239X$1,22.5*
%
%ADD10C,0.0000*%
%ADD11R,0.0591X0.0787*%
%ADD12R,0.0787X0.0591*%
%ADD13R,0.0236X0.0866*%
%ADD14R,0.0106X0.0591*%
%ADD15R,0.0591X0.0106*%
%ADD16R,0.0591X0.0630*%
%ADD17R,0.0591X0.0512*%
%ADD18OC8,0.0520*%
%ADD19R,0.0709X0.0472*%
%ADD20R,0.0472X0.0709*%
%ADD21R,0.2362X0.2362*%
%ADD22C,0.3543*%
%ADD23C,0.0515*%
%ADD24C,0.0160*%
%ADD25C,0.0100*%
%ADD26R,0.0278X0.0278*%
%ADD27C,0.0240*%
%ADD28R,0.0396X0.0396*%
%ADD29R,0.0591X0.0591*%
%ADD30C,0.0120*%
%ADD31OC8,0.0396*%
%ADD32OC8,0.0278*%
%ADD33OC8,0.0475*%
D10*
X001762Y001671D02*
X001762Y021392D01*
X050959Y021392D01*
X050959Y001671D01*
X001762Y001671D01*
X002093Y006408D02*
X002095Y006450D01*
X002101Y006491D01*
X002111Y006532D01*
X002125Y006571D01*
X002143Y006609D01*
X002164Y006645D01*
X002188Y006679D01*
X002216Y006710D01*
X002247Y006739D01*
X002280Y006764D01*
X002316Y006786D01*
X002353Y006805D01*
X002392Y006820D01*
X002433Y006831D01*
X002474Y006838D01*
X002516Y006841D01*
X002557Y006840D01*
X002599Y006835D01*
X002640Y006826D01*
X002680Y006813D01*
X002718Y006796D01*
X002754Y006776D01*
X002789Y006752D01*
X002821Y006725D01*
X002850Y006695D01*
X002876Y006663D01*
X002899Y006628D01*
X002919Y006590D01*
X002934Y006552D01*
X002946Y006512D01*
X002954Y006471D01*
X002958Y006429D01*
X002958Y006387D01*
X002954Y006345D01*
X002946Y006304D01*
X002934Y006264D01*
X002919Y006226D01*
X002899Y006188D01*
X002876Y006153D01*
X002850Y006121D01*
X002821Y006091D01*
X002789Y006064D01*
X002754Y006040D01*
X002718Y006020D01*
X002680Y006003D01*
X002640Y005990D01*
X002599Y005981D01*
X002557Y005976D01*
X002516Y005975D01*
X002474Y005978D01*
X002433Y005985D01*
X002392Y005996D01*
X002353Y006011D01*
X002316Y006030D01*
X002280Y006052D01*
X002247Y006077D01*
X002216Y006106D01*
X002188Y006137D01*
X002164Y006171D01*
X002143Y006207D01*
X002125Y006245D01*
X002111Y006284D01*
X002101Y006325D01*
X002095Y006366D01*
X002093Y006408D01*
X007014Y006408D02*
X007016Y006450D01*
X007022Y006491D01*
X007032Y006532D01*
X007046Y006571D01*
X007064Y006609D01*
X007085Y006645D01*
X007109Y006679D01*
X007137Y006710D01*
X007168Y006739D01*
X007201Y006764D01*
X007237Y006786D01*
X007274Y006805D01*
X007313Y006820D01*
X007354Y006831D01*
X007395Y006838D01*
X007437Y006841D01*
X007478Y006840D01*
X007520Y006835D01*
X007561Y006826D01*
X007601Y006813D01*
X007639Y006796D01*
X007675Y006776D01*
X007710Y006752D01*
X007742Y006725D01*
X007771Y006695D01*
X007797Y006663D01*
X007820Y006628D01*
X007840Y006590D01*
X007855Y006552D01*
X007867Y006512D01*
X007875Y006471D01*
X007879Y006429D01*
X007879Y006387D01*
X007875Y006345D01*
X007867Y006304D01*
X007855Y006264D01*
X007840Y006226D01*
X007820Y006188D01*
X007797Y006153D01*
X007771Y006121D01*
X007742Y006091D01*
X007710Y006064D01*
X007675Y006040D01*
X007639Y006020D01*
X007601Y006003D01*
X007561Y005990D01*
X007520Y005981D01*
X007478Y005976D01*
X007437Y005975D01*
X007395Y005978D01*
X007354Y005985D01*
X007313Y005996D01*
X007274Y006011D01*
X007237Y006030D01*
X007201Y006052D01*
X007168Y006077D01*
X007137Y006106D01*
X007109Y006137D01*
X007085Y006171D01*
X007064Y006207D01*
X007046Y006245D01*
X007032Y006284D01*
X007022Y006325D01*
X007016Y006366D01*
X007014Y006408D01*
X025912Y006408D02*
X025914Y006450D01*
X025920Y006491D01*
X025930Y006532D01*
X025944Y006571D01*
X025962Y006609D01*
X025983Y006645D01*
X026007Y006679D01*
X026035Y006710D01*
X026066Y006739D01*
X026099Y006764D01*
X026135Y006786D01*
X026172Y006805D01*
X026211Y006820D01*
X026252Y006831D01*
X026293Y006838D01*
X026335Y006841D01*
X026376Y006840D01*
X026418Y006835D01*
X026459Y006826D01*
X026499Y006813D01*
X026537Y006796D01*
X026573Y006776D01*
X026608Y006752D01*
X026640Y006725D01*
X026669Y006695D01*
X026695Y006663D01*
X026718Y006628D01*
X026738Y006590D01*
X026753Y006552D01*
X026765Y006512D01*
X026773Y006471D01*
X026777Y006429D01*
X026777Y006387D01*
X026773Y006345D01*
X026765Y006304D01*
X026753Y006264D01*
X026738Y006226D01*
X026718Y006188D01*
X026695Y006153D01*
X026669Y006121D01*
X026640Y006091D01*
X026608Y006064D01*
X026573Y006040D01*
X026537Y006020D01*
X026499Y006003D01*
X026459Y005990D01*
X026418Y005981D01*
X026376Y005976D01*
X026335Y005975D01*
X026293Y005978D01*
X026252Y005985D01*
X026211Y005996D01*
X026172Y006011D01*
X026135Y006030D01*
X026099Y006052D01*
X026066Y006077D01*
X026035Y006106D01*
X026007Y006137D01*
X025983Y006171D01*
X025962Y006207D01*
X025944Y006245D01*
X025930Y006284D01*
X025920Y006325D01*
X025914Y006366D01*
X025912Y006408D01*
X044809Y006408D02*
X044811Y006450D01*
X044817Y006491D01*
X044827Y006532D01*
X044841Y006571D01*
X044859Y006609D01*
X044880Y006645D01*
X044904Y006679D01*
X044932Y006710D01*
X044963Y006739D01*
X044996Y006764D01*
X045032Y006786D01*
X045069Y006805D01*
X045108Y006820D01*
X045149Y006831D01*
X045190Y006838D01*
X045232Y006841D01*
X045273Y006840D01*
X045315Y006835D01*
X045356Y006826D01*
X045396Y006813D01*
X045434Y006796D01*
X045470Y006776D01*
X045505Y006752D01*
X045537Y006725D01*
X045566Y006695D01*
X045592Y006663D01*
X045615Y006628D01*
X045635Y006590D01*
X045650Y006552D01*
X045662Y006512D01*
X045670Y006471D01*
X045674Y006429D01*
X045674Y006387D01*
X045670Y006345D01*
X045662Y006304D01*
X045650Y006264D01*
X045635Y006226D01*
X045615Y006188D01*
X045592Y006153D01*
X045566Y006121D01*
X045537Y006091D01*
X045505Y006064D01*
X045470Y006040D01*
X045434Y006020D01*
X045396Y006003D01*
X045356Y005990D01*
X045315Y005981D01*
X045273Y005976D01*
X045232Y005975D01*
X045190Y005978D01*
X045149Y005985D01*
X045108Y005996D01*
X045069Y006011D01*
X045032Y006030D01*
X044996Y006052D01*
X044963Y006077D01*
X044932Y006106D01*
X044904Y006137D01*
X044880Y006171D01*
X044859Y006207D01*
X044841Y006245D01*
X044827Y006284D01*
X044817Y006325D01*
X044811Y006366D01*
X044809Y006408D01*
X044612Y015856D02*
X044614Y015898D01*
X044620Y015939D01*
X044630Y015980D01*
X044644Y016019D01*
X044662Y016057D01*
X044683Y016093D01*
X044707Y016127D01*
X044735Y016158D01*
X044766Y016187D01*
X044799Y016212D01*
X044835Y016234D01*
X044872Y016253D01*
X044911Y016268D01*
X044952Y016279D01*
X044993Y016286D01*
X045035Y016289D01*
X045076Y016288D01*
X045118Y016283D01*
X045159Y016274D01*
X045199Y016261D01*
X045237Y016244D01*
X045273Y016224D01*
X045308Y016200D01*
X045340Y016173D01*
X045369Y016143D01*
X045395Y016111D01*
X045418Y016076D01*
X045438Y016038D01*
X045453Y016000D01*
X045465Y015960D01*
X045473Y015919D01*
X045477Y015877D01*
X045477Y015835D01*
X045473Y015793D01*
X045465Y015752D01*
X045453Y015712D01*
X045438Y015674D01*
X045418Y015636D01*
X045395Y015601D01*
X045369Y015569D01*
X045340Y015539D01*
X045308Y015512D01*
X045273Y015488D01*
X045237Y015468D01*
X045199Y015451D01*
X045159Y015438D01*
X045118Y015429D01*
X045076Y015424D01*
X045035Y015423D01*
X044993Y015426D01*
X044952Y015433D01*
X044911Y015444D01*
X044872Y015459D01*
X044835Y015478D01*
X044799Y015500D01*
X044766Y015525D01*
X044735Y015554D01*
X044707Y015585D01*
X044683Y015619D01*
X044662Y015655D01*
X044644Y015693D01*
X044630Y015732D01*
X044620Y015773D01*
X044614Y015814D01*
X044612Y015856D01*
X049730Y015856D02*
X049732Y015898D01*
X049738Y015939D01*
X049748Y015980D01*
X049762Y016019D01*
X049780Y016057D01*
X049801Y016093D01*
X049825Y016127D01*
X049853Y016158D01*
X049884Y016187D01*
X049917Y016212D01*
X049953Y016234D01*
X049990Y016253D01*
X050029Y016268D01*
X050070Y016279D01*
X050111Y016286D01*
X050153Y016289D01*
X050194Y016288D01*
X050236Y016283D01*
X050277Y016274D01*
X050317Y016261D01*
X050355Y016244D01*
X050391Y016224D01*
X050426Y016200D01*
X050458Y016173D01*
X050487Y016143D01*
X050513Y016111D01*
X050536Y016076D01*
X050556Y016038D01*
X050571Y016000D01*
X050583Y015960D01*
X050591Y015919D01*
X050595Y015877D01*
X050595Y015835D01*
X050591Y015793D01*
X050583Y015752D01*
X050571Y015712D01*
X050556Y015674D01*
X050536Y015636D01*
X050513Y015601D01*
X050487Y015569D01*
X050458Y015539D01*
X050426Y015512D01*
X050391Y015488D01*
X050355Y015468D01*
X050317Y015451D01*
X050277Y015438D01*
X050236Y015429D01*
X050194Y015424D01*
X050153Y015423D01*
X050111Y015426D01*
X050070Y015433D01*
X050029Y015444D01*
X049990Y015459D01*
X049953Y015478D01*
X049917Y015500D01*
X049884Y015525D01*
X049853Y015554D01*
X049825Y015585D01*
X049801Y015619D01*
X049780Y015655D01*
X049762Y015693D01*
X049748Y015732D01*
X049738Y015773D01*
X049732Y015814D01*
X049730Y015856D01*
X025912Y015856D02*
X025914Y015898D01*
X025920Y015939D01*
X025930Y015980D01*
X025944Y016019D01*
X025962Y016057D01*
X025983Y016093D01*
X026007Y016127D01*
X026035Y016158D01*
X026066Y016187D01*
X026099Y016212D01*
X026135Y016234D01*
X026172Y016253D01*
X026211Y016268D01*
X026252Y016279D01*
X026293Y016286D01*
X026335Y016289D01*
X026376Y016288D01*
X026418Y016283D01*
X026459Y016274D01*
X026499Y016261D01*
X026537Y016244D01*
X026573Y016224D01*
X026608Y016200D01*
X026640Y016173D01*
X026669Y016143D01*
X026695Y016111D01*
X026718Y016076D01*
X026738Y016038D01*
X026753Y016000D01*
X026765Y015960D01*
X026773Y015919D01*
X026777Y015877D01*
X026777Y015835D01*
X026773Y015793D01*
X026765Y015752D01*
X026753Y015712D01*
X026738Y015674D01*
X026718Y015636D01*
X026695Y015601D01*
X026669Y015569D01*
X026640Y015539D01*
X026608Y015512D01*
X026573Y015488D01*
X026537Y015468D01*
X026499Y015451D01*
X026459Y015438D01*
X026418Y015429D01*
X026376Y015424D01*
X026335Y015423D01*
X026293Y015426D01*
X026252Y015433D01*
X026211Y015444D01*
X026172Y015459D01*
X026135Y015478D01*
X026099Y015500D01*
X026066Y015525D01*
X026035Y015554D01*
X026007Y015585D01*
X025983Y015619D01*
X025962Y015655D01*
X025944Y015693D01*
X025930Y015732D01*
X025920Y015773D01*
X025914Y015814D01*
X025912Y015856D01*
X007014Y015856D02*
X007016Y015898D01*
X007022Y015939D01*
X007032Y015980D01*
X007046Y016019D01*
X007064Y016057D01*
X007085Y016093D01*
X007109Y016127D01*
X007137Y016158D01*
X007168Y016187D01*
X007201Y016212D01*
X007237Y016234D01*
X007274Y016253D01*
X007313Y016268D01*
X007354Y016279D01*
X007395Y016286D01*
X007437Y016289D01*
X007478Y016288D01*
X007520Y016283D01*
X007561Y016274D01*
X007601Y016261D01*
X007639Y016244D01*
X007675Y016224D01*
X007710Y016200D01*
X007742Y016173D01*
X007771Y016143D01*
X007797Y016111D01*
X007820Y016076D01*
X007840Y016038D01*
X007855Y016000D01*
X007867Y015960D01*
X007875Y015919D01*
X007879Y015877D01*
X007879Y015835D01*
X007875Y015793D01*
X007867Y015752D01*
X007855Y015712D01*
X007840Y015674D01*
X007820Y015636D01*
X007797Y015601D01*
X007771Y015569D01*
X007742Y015539D01*
X007710Y015512D01*
X007675Y015488D01*
X007639Y015468D01*
X007601Y015451D01*
X007561Y015438D01*
X007520Y015429D01*
X007478Y015424D01*
X007437Y015423D01*
X007395Y015426D01*
X007354Y015433D01*
X007313Y015444D01*
X007274Y015459D01*
X007237Y015478D01*
X007201Y015500D01*
X007168Y015525D01*
X007137Y015554D01*
X007109Y015585D01*
X007085Y015619D01*
X007064Y015655D01*
X007046Y015693D01*
X007032Y015732D01*
X007022Y015773D01*
X007016Y015814D01*
X007014Y015856D01*
X002093Y015856D02*
X002095Y015898D01*
X002101Y015939D01*
X002111Y015980D01*
X002125Y016019D01*
X002143Y016057D01*
X002164Y016093D01*
X002188Y016127D01*
X002216Y016158D01*
X002247Y016187D01*
X002280Y016212D01*
X002316Y016234D01*
X002353Y016253D01*
X002392Y016268D01*
X002433Y016279D01*
X002474Y016286D01*
X002516Y016289D01*
X002557Y016288D01*
X002599Y016283D01*
X002640Y016274D01*
X002680Y016261D01*
X002718Y016244D01*
X002754Y016224D01*
X002789Y016200D01*
X002821Y016173D01*
X002850Y016143D01*
X002876Y016111D01*
X002899Y016076D01*
X002919Y016038D01*
X002934Y016000D01*
X002946Y015960D01*
X002954Y015919D01*
X002958Y015877D01*
X002958Y015835D01*
X002954Y015793D01*
X002946Y015752D01*
X002934Y015712D01*
X002919Y015674D01*
X002899Y015636D01*
X002876Y015601D01*
X002850Y015569D01*
X002821Y015539D01*
X002789Y015512D01*
X002754Y015488D01*
X002718Y015468D01*
X002680Y015451D01*
X002640Y015438D01*
X002599Y015429D01*
X002557Y015424D01*
X002516Y015423D01*
X002474Y015426D01*
X002433Y015433D01*
X002392Y015444D01*
X002353Y015459D01*
X002316Y015478D01*
X002280Y015500D01*
X002247Y015525D01*
X002216Y015554D01*
X002188Y015585D01*
X002164Y015619D01*
X002143Y015655D01*
X002125Y015693D01*
X002111Y015732D01*
X002101Y015773D01*
X002095Y015814D01*
X002093Y015856D01*
D11*
X007345Y019433D03*
X008526Y019433D03*
X009345Y019465D03*
X010526Y019465D03*
X011345Y019465D03*
X012526Y019465D03*
X014345Y019465D03*
X015526Y019465D03*
X019652Y012411D03*
X020833Y012411D03*
X019110Y006604D03*
X017929Y006604D03*
D12*
X014730Y003849D03*
X014730Y002667D03*
X010793Y004439D03*
X010793Y005620D03*
X010400Y006408D03*
X010400Y007589D03*
X010400Y016201D03*
X012368Y017037D03*
X010400Y017382D03*
X012368Y018219D03*
X013435Y018624D03*
X013435Y019805D03*
X006435Y019774D03*
X005435Y019774D03*
X004435Y019774D03*
X003435Y019774D03*
X003435Y018593D03*
X004435Y018593D03*
X005435Y018593D03*
X006435Y018593D03*
X031833Y019583D03*
X031833Y020764D03*
X034961Y019551D03*
X034961Y018370D03*
D13*
X017685Y005207D03*
X017185Y005207D03*
X016685Y005207D03*
X016185Y005207D03*
X013185Y005207D03*
X012685Y005207D03*
X012185Y005207D03*
X011685Y005207D03*
X011685Y003160D03*
X012185Y003160D03*
X012685Y003160D03*
X013185Y003160D03*
X016185Y003160D03*
X016685Y003160D03*
X017185Y003160D03*
X017685Y003160D03*
D14*
X017683Y007392D03*
X017486Y007392D03*
X017289Y007392D03*
X017093Y007392D03*
X016896Y007392D03*
X016699Y007392D03*
X016502Y007392D03*
X016305Y007392D03*
X016108Y007392D03*
X015911Y007392D03*
X015715Y007392D03*
X015518Y007392D03*
X015321Y007392D03*
X015124Y007392D03*
X014927Y007392D03*
X014730Y007392D03*
X014534Y007392D03*
X014337Y007392D03*
X014140Y007392D03*
X013943Y007392D03*
X013746Y007392D03*
X013549Y007392D03*
X013352Y007392D03*
X013156Y007392D03*
X012959Y007392D03*
X012762Y007392D03*
X012565Y007392D03*
X012368Y007392D03*
X012171Y007392D03*
X011974Y007392D03*
X011778Y007392D03*
X011581Y007392D03*
X011384Y007392D03*
X011187Y007392D03*
X017880Y007392D03*
X018077Y007392D03*
X018077Y015856D03*
X017880Y015856D03*
X017683Y015856D03*
X017486Y015856D03*
X017289Y015856D03*
X017093Y015856D03*
X016896Y015856D03*
X016699Y015856D03*
X016502Y015856D03*
X016305Y015856D03*
X016108Y015856D03*
X015911Y015856D03*
X015715Y015856D03*
X015518Y015856D03*
X015321Y015856D03*
X015124Y015856D03*
X014927Y015856D03*
X014730Y015856D03*
X014534Y015856D03*
X014337Y015856D03*
X014140Y015856D03*
X013943Y015856D03*
X013746Y015856D03*
X013549Y015856D03*
X013352Y015856D03*
X013156Y015856D03*
X012959Y015856D03*
X012762Y015856D03*
X012565Y015856D03*
X012368Y015856D03*
X012171Y015856D03*
X011974Y015856D03*
X011778Y015856D03*
X011581Y015856D03*
X011384Y015856D03*
X011187Y015856D03*
D15*
X010400Y015069D03*
X010400Y014872D03*
X010400Y014675D03*
X010400Y014478D03*
X010400Y014282D03*
X010400Y014085D03*
X010400Y013888D03*
X010400Y013691D03*
X010400Y013494D03*
X010400Y013297D03*
X010400Y013100D03*
X010400Y012904D03*
X010400Y012707D03*
X010400Y012510D03*
X010400Y012313D03*
X010400Y012116D03*
X010400Y011919D03*
X010400Y011723D03*
X010400Y011526D03*
X010400Y011329D03*
X010400Y011132D03*
X010400Y010935D03*
X010400Y010738D03*
X010400Y010541D03*
X010400Y010345D03*
X010400Y010148D03*
X010400Y009951D03*
X010400Y009754D03*
X010400Y009557D03*
X010400Y009360D03*
X010400Y009163D03*
X010400Y008967D03*
X010400Y008770D03*
X010400Y008573D03*
X010400Y008376D03*
X010400Y008179D03*
X018864Y008179D03*
X018864Y008376D03*
X018864Y008573D03*
X018864Y008770D03*
X018864Y008967D03*
X018864Y009163D03*
X018864Y009360D03*
X018864Y009557D03*
X018864Y009754D03*
X018864Y009951D03*
X018864Y010148D03*
X018864Y010345D03*
X018864Y010541D03*
X018864Y010738D03*
X018864Y010935D03*
X018864Y011132D03*
X018864Y011329D03*
X018864Y011526D03*
X018864Y011723D03*
X018864Y011919D03*
X018864Y012116D03*
X018864Y012313D03*
X018864Y012510D03*
X018864Y012707D03*
X018864Y012904D03*
X018864Y013100D03*
X018864Y013297D03*
X018864Y013494D03*
X018864Y013691D03*
X018864Y013888D03*
X018864Y014085D03*
X018864Y014282D03*
X018864Y014478D03*
X018864Y014675D03*
X018864Y014872D03*
X018864Y015069D03*
D16*
X032817Y019852D03*
D17*
X033801Y019439D03*
X033801Y020266D03*
D18*
X050435Y007433D03*
X050435Y006433D03*
X050435Y005433D03*
X050435Y004433D03*
X050435Y003433D03*
X050435Y002433D03*
X002435Y008933D03*
X002435Y009933D03*
X002435Y010933D03*
X002435Y011933D03*
X002435Y012933D03*
X002435Y013933D03*
D19*
X003595Y011933D03*
X004775Y011933D03*
X004775Y010933D03*
X003595Y010933D03*
D20*
X003935Y010023D03*
X003935Y008843D03*
D21*
X035723Y005652D03*
X035723Y016652D03*
D22*
X035723Y011152D03*
D23*
X022435Y020683D03*
X021435Y020683D03*
X020435Y020683D03*
X019435Y020683D03*
X018435Y020683D03*
X017435Y020683D03*
X016435Y020683D03*
X015435Y020683D03*
X014435Y020683D03*
X013435Y020683D03*
X012435Y020683D03*
X011435Y020683D03*
X010435Y020683D03*
X009435Y020683D03*
X008435Y020683D03*
X007435Y020683D03*
X006435Y020683D03*
X005435Y020683D03*
X004435Y020683D03*
X003435Y020683D03*
D24*
X003435Y019774D01*
X003435Y019683D01*
X004435Y019683D02*
X004435Y019774D01*
X004435Y020683D01*
X005435Y020683D02*
X005435Y019774D01*
X005435Y019683D01*
X006435Y019683D02*
X006435Y019774D01*
X006435Y020683D01*
X007435Y020683D02*
X007435Y019433D01*
X007345Y019433D01*
X007845Y018593D02*
X008435Y019183D01*
X008435Y019433D01*
X008526Y019433D01*
X008526Y020289D01*
X008431Y020384D01*
X008435Y020388D01*
X008435Y020683D01*
X009435Y020683D02*
X009435Y019433D01*
X009435Y019465D01*
X009345Y019465D01*
X009404Y019465D01*
X009435Y019433D01*
X010435Y019433D02*
X010435Y020683D01*
X011435Y020683D02*
X011435Y019433D01*
X011435Y019465D01*
X011345Y019465D01*
X011404Y019465D01*
X011435Y019433D01*
X010526Y019465D02*
X010435Y019465D01*
X010435Y019433D01*
X010467Y019465D01*
X010526Y019465D01*
X012435Y019465D02*
X012526Y019465D01*
X012467Y019465D01*
X012435Y019433D01*
X012435Y020683D01*
X013435Y020683D02*
X013435Y019805D01*
X013435Y019683D01*
X014345Y019465D02*
X014435Y019465D01*
X014435Y019433D01*
X014435Y020683D01*
X016435Y020683D02*
X016435Y020933D01*
X017435Y020933D02*
X017435Y020683D01*
X018435Y020683D02*
X018435Y020152D01*
X019435Y019774D02*
X019435Y020683D01*
X020435Y020683D02*
X020435Y019986D01*
X021435Y019411D02*
X021435Y020683D01*
X022435Y020683D02*
X022435Y019624D01*
X015526Y019465D02*
X015467Y019465D01*
X015435Y019433D01*
X014435Y019433D02*
X014404Y019465D01*
X014345Y019465D01*
X013435Y018624D02*
X013244Y018624D01*
X012435Y019433D01*
X012435Y019465D01*
X007845Y018593D02*
X006435Y018593D01*
X006435Y018683D01*
X006435Y018593D02*
X005435Y018593D01*
X005435Y018683D01*
X005435Y018593D02*
X004435Y018593D01*
X004435Y018683D01*
X004435Y018593D02*
X003435Y018593D01*
X005085Y017825D02*
X005085Y013888D01*
X005435Y012933D02*
X002435Y012933D01*
X003595Y012093D02*
X003935Y012433D01*
X005435Y012433D01*
X005435Y011433D02*
X004435Y011433D01*
X003935Y010933D01*
X003595Y010933D01*
X002435Y010933D01*
X002435Y009933D02*
X003935Y009933D01*
X003935Y010023D01*
X004275Y010023D01*
X004435Y010183D01*
X005435Y010183D01*
X003935Y008933D02*
X002435Y008933D01*
X003935Y008933D02*
X003935Y008843D01*
X003685Y011933D02*
X003595Y011933D01*
X003595Y012093D01*
X003595Y011933D02*
X002435Y011933D01*
D25*
X002185Y011433D02*
X002034Y011282D01*
X002034Y009335D01*
X002435Y008933D01*
X005085Y008376D02*
X005085Y004439D01*
X009809Y004439D02*
X009809Y008770D01*
X009809Y009163D01*
X009415Y009163D01*
X009219Y009360D01*
X009219Y010738D01*
X008628Y011329D01*
X007551Y011433D02*
X008628Y012510D01*
X010400Y012510D01*
X010400Y012313D02*
X009022Y012313D01*
X006892Y010183D01*
X005435Y010183D01*
X005136Y010933D02*
X004775Y010933D01*
X005435Y011433D02*
X007551Y011433D01*
X007841Y012116D02*
X009219Y013494D01*
X010400Y013494D01*
X010400Y013297D02*
X010990Y013297D01*
X011089Y013199D01*
X010400Y013100D02*
X009415Y013100D01*
X009169Y012854D01*
X009022Y013691D02*
X007644Y012313D01*
X006069Y012313D01*
X005449Y012933D01*
X005435Y012933D01*
X006266Y012707D02*
X005085Y013888D01*
X006266Y012707D02*
X007250Y012707D01*
X007644Y012707D01*
X008825Y013888D01*
X010400Y013888D01*
X010400Y013691D02*
X009022Y013691D01*
X008628Y014282D02*
X009809Y014282D01*
X010400Y014282D01*
X010400Y014478D02*
X010990Y014478D01*
X009809Y014282D02*
X009809Y017825D01*
X011581Y017825D02*
X011581Y016841D01*
X011974Y016447D01*
X011974Y015856D01*
X012368Y015856D02*
X012368Y017037D01*
X012663Y016447D02*
X012663Y016349D01*
X012565Y016250D01*
X012565Y015856D01*
X012368Y015856D02*
X012368Y015069D01*
X014140Y015069D02*
X014140Y015856D01*
X014534Y015856D02*
X014534Y016250D01*
X014337Y016447D01*
X012959Y016447D01*
X014534Y017431D02*
X014534Y017825D01*
X014534Y017431D02*
X014927Y017037D01*
X014927Y015856D01*
X015911Y015856D02*
X015911Y017628D01*
X018435Y020152D01*
X019258Y019597D02*
X019435Y019774D01*
X019258Y019597D02*
X018274Y019597D01*
X016305Y017628D01*
X016305Y015856D01*
X016699Y015856D02*
X016699Y015463D01*
X016600Y015364D01*
X016600Y015217D01*
X016896Y015266D02*
X017093Y015069D01*
X017093Y014872D01*
X016896Y015266D02*
X016896Y015856D01*
X017289Y015856D02*
X017289Y018022D01*
X018471Y019203D01*
X019652Y019203D01*
X020435Y019986D01*
X021435Y019411D02*
X020833Y018809D01*
X018667Y018809D01*
X017486Y017628D01*
X017486Y015856D01*
X017880Y015856D02*
X017880Y017431D01*
X018864Y018415D01*
X021226Y018415D01*
X022435Y019624D01*
X023982Y017825D02*
X023982Y016447D01*
X024179Y016250D01*
X024179Y016053D01*
X023392Y016053D01*
X022998Y015660D01*
X022998Y014872D01*
X022604Y014478D01*
X018864Y014478D01*
X018864Y014675D02*
X018471Y014675D01*
X018274Y014478D01*
X018274Y013888D01*
X018274Y013297D02*
X018864Y013297D01*
X019652Y013297D02*
X020242Y012707D01*
X020242Y011919D01*
X020439Y011723D01*
X021030Y011723D01*
X021226Y012116D02*
X020833Y012411D01*
X019652Y012411D02*
X019553Y012411D01*
X019455Y012313D01*
X018864Y012313D01*
X017880Y012313D01*
X018274Y011723D02*
X018471Y011919D01*
X018864Y011919D01*
X018274Y011723D02*
X018274Y011329D01*
X018864Y011329D02*
X022801Y011329D01*
X023392Y011919D01*
X023392Y015266D01*
X023786Y015660D01*
X024179Y016053D02*
X024179Y015266D01*
X023982Y015069D01*
X023982Y013691D01*
X024376Y013297D01*
X024376Y010148D01*
X023982Y009754D01*
X023982Y009163D01*
X023982Y004439D01*
X023589Y004242D02*
X023786Y004045D01*
X026345Y004045D01*
X026443Y004144D01*
X026738Y004144D01*
X028116Y003849D02*
X028707Y004439D01*
X028707Y009163D01*
X028707Y013888D01*
X028707Y017825D01*
X033431Y017825D02*
X033431Y013888D01*
X033431Y009163D01*
X033431Y004439D01*
X033431Y004242D01*
X032841Y003652D01*
X023392Y003652D01*
X022998Y004045D01*
X022998Y009754D01*
X022408Y010345D01*
X018864Y010345D01*
X018864Y010541D02*
X022604Y010541D01*
X023195Y009951D01*
X023195Y004242D01*
X023589Y003849D01*
X028116Y003849D01*
X023589Y004242D02*
X023392Y010148D01*
X022801Y010738D01*
X018864Y010738D01*
X018864Y010935D02*
X022998Y010935D01*
X023097Y010837D01*
X023982Y010837D01*
X023293Y011132D02*
X018864Y011132D01*
X018274Y010935D02*
X018274Y009951D01*
X018471Y009754D01*
X018864Y009754D01*
X018864Y009557D02*
X022211Y009557D01*
X022604Y009163D01*
X022604Y003652D01*
X022998Y003258D01*
X041699Y003258D01*
X042880Y004439D01*
X042880Y009163D01*
X042880Y013888D01*
X042880Y017825D01*
X038156Y017825D02*
X038156Y013888D01*
X038156Y009163D01*
X038156Y004439D01*
X038156Y004242D01*
X037762Y003849D01*
X033628Y003849D01*
X033234Y003455D01*
X023195Y003455D01*
X022801Y003849D01*
X022801Y009557D01*
X022211Y010148D01*
X018864Y010148D01*
X018864Y009360D02*
X017880Y009360D01*
X018864Y009163D02*
X022014Y009163D01*
X022408Y008770D01*
X022408Y003455D01*
X022801Y003061D01*
X046226Y003061D01*
X047604Y004439D01*
X047604Y009163D01*
X047604Y013888D01*
X047604Y017825D01*
X049573Y018219D02*
X050360Y018219D01*
X050360Y013494D02*
X049573Y013494D01*
X049573Y008770D02*
X050360Y008770D01*
X050435Y007433D02*
X049685Y007433D01*
X049376Y007124D01*
X049376Y005886D01*
X050185Y005433D02*
X048935Y004183D01*
X048935Y002933D01*
X048669Y002667D01*
X022408Y002667D01*
X021817Y003258D01*
X021817Y008376D01*
X021423Y008770D01*
X018864Y008770D01*
X018864Y008967D02*
X021620Y008967D01*
X022014Y008573D01*
X022014Y003455D01*
X022604Y002864D01*
X048366Y002864D01*
X048685Y003183D01*
X048685Y004683D01*
X050435Y006433D01*
X050435Y005433D02*
X050185Y005433D01*
X050435Y004433D02*
X049685Y004433D01*
X049185Y003933D01*
X049185Y002683D01*
X048973Y002471D01*
X020833Y002471D01*
X019258Y004045D01*
X019258Y005030D01*
X019849Y005620D01*
X019849Y007195D01*
X019652Y007392D01*
X019652Y008376D01*
X019455Y008573D01*
X018864Y008573D01*
X018864Y008376D02*
X019258Y008376D01*
X019455Y008179D01*
X019455Y007195D01*
X019652Y006998D01*
X019652Y005817D01*
X019061Y005226D01*
X019061Y003849D01*
X020636Y002274D01*
X049276Y002274D01*
X049435Y002433D01*
X049435Y003183D01*
X049685Y003433D01*
X050435Y003433D01*
X021226Y015069D02*
X020833Y014675D01*
X018864Y014675D01*
X018864Y015069D02*
X018274Y015069D01*
X018471Y015856D02*
X018077Y015856D01*
X019258Y017825D02*
X020833Y016250D01*
X015467Y019465D02*
X015518Y020384D01*
X015435Y020683D01*
X008435Y020683D02*
X008431Y020384D01*
X010400Y016201D02*
X010400Y016053D01*
X010597Y015856D01*
X008628Y014282D02*
X007447Y013100D01*
X007841Y012116D02*
X005675Y012116D01*
X005435Y012433D01*
X004775Y011933D02*
X004435Y011933D01*
X003935Y011433D01*
X002185Y011433D01*
X009809Y011132D02*
X010400Y011132D01*
X010400Y010935D02*
X010990Y010935D01*
X010990Y009951D02*
X010400Y009951D01*
X010006Y009557D02*
X009809Y009754D01*
X010006Y009557D02*
X010400Y009557D01*
X012368Y008376D02*
X012368Y007392D01*
X012565Y007392D02*
X012565Y006801D01*
X012435Y006433D02*
X012171Y006697D01*
X011974Y006801D01*
X011974Y007392D01*
X011778Y007392D02*
X011778Y006604D01*
X011974Y006447D01*
X012185Y006236D01*
X012185Y005207D01*
X011685Y005207D02*
X011685Y005843D01*
X011581Y005947D01*
X011384Y006211D01*
X011384Y007392D01*
X011581Y007392D02*
X011581Y006408D01*
X011778Y006197D01*
X011935Y006039D01*
X011935Y003933D01*
X012185Y003683D01*
X012185Y003160D01*
X012685Y003160D02*
X012685Y003683D01*
X012435Y003933D01*
X012435Y006433D01*
X012685Y006183D02*
X012685Y005207D01*
X012685Y005183D01*
X013185Y005183D02*
X013685Y004585D01*
X014534Y004439D02*
X014534Y006211D01*
X014337Y006408D01*
X014337Y007392D01*
X014337Y008376D01*
X014534Y008573D01*
X014534Y008967D01*
X014534Y013100D01*
X012959Y008770D02*
X013746Y007982D01*
X013746Y007392D01*
X013943Y007392D02*
X013943Y005620D01*
X013185Y005207D02*
X013185Y005183D01*
X011685Y005207D02*
X011685Y005183D01*
X012935Y005933D02*
X013156Y006154D01*
X013156Y007392D01*
X012959Y007392D02*
X012959Y006457D01*
X012685Y006183D01*
X012935Y005933D02*
X012935Y003933D01*
X013185Y003683D01*
X013185Y003160D01*
X016435Y003933D02*
X016685Y003683D01*
X016685Y003160D01*
X017185Y003160D02*
X017185Y003933D01*
X016935Y004183D01*
X016935Y006433D01*
X017093Y006591D01*
X017093Y007392D01*
X017289Y007392D02*
X017289Y006386D01*
X017185Y006282D01*
X017185Y005207D01*
X016685Y005207D02*
X016685Y006380D01*
X016502Y006563D01*
X016502Y007392D01*
X016305Y007392D02*
X016305Y006313D01*
X016435Y006183D01*
X016435Y003933D01*
X017435Y004183D02*
X017685Y003933D01*
X017685Y003160D01*
X017435Y004183D02*
X017435Y006130D01*
X017486Y006181D01*
X017486Y007392D01*
X016896Y007392D02*
X016896Y008179D01*
X016699Y007392D02*
X016699Y006998D01*
X016797Y006900D01*
X016797Y006801D01*
X016108Y007392D02*
X016108Y006010D01*
X016185Y005933D01*
X016185Y005207D01*
X016185Y005183D01*
X016685Y005207D02*
X016685Y005183D01*
X017685Y005207D02*
X017685Y005683D01*
X017738Y005933D01*
X019652Y004242D02*
X020045Y004636D01*
X020045Y008376D01*
X019061Y007786D02*
X018864Y008179D01*
X015124Y008179D02*
X015124Y007392D01*
X014730Y007392D02*
X014730Y007933D01*
X011187Y007392D02*
X011187Y006604D01*
X011089Y006408D01*
D26*
X011039Y006358D03*
X010203Y006211D03*
X012565Y006801D03*
X014730Y007933D03*
X016797Y006801D03*
X017738Y005933D03*
X019258Y006211D03*
X015518Y003849D03*
X013685Y004585D03*
X010793Y004045D03*
X009809Y009754D03*
X009809Y011132D03*
X009169Y012854D03*
X005136Y010933D03*
X010597Y015856D03*
X012663Y016447D03*
X012959Y016447D03*
X010597Y017628D03*
X012171Y017825D03*
X018471Y015856D03*
X019061Y015660D03*
X020045Y015856D03*
X016600Y015217D03*
X018274Y013297D03*
X021226Y012116D03*
X021620Y012904D03*
X021620Y014085D03*
X018274Y011329D03*
X018274Y010935D03*
X024967Y006358D03*
X037565Y011132D03*
D27*
X037545Y011152D01*
X035723Y011152D01*
X024967Y006358D02*
X024967Y018612D01*
X033037Y018612D01*
X033801Y019376D01*
X033801Y019439D01*
X033801Y019423D01*
X033825Y019400D01*
X034415Y019400D01*
X034658Y019642D01*
X034961Y019551D01*
X033801Y020266D02*
X033549Y020266D01*
X033431Y020384D01*
X032841Y020581D02*
X032841Y019793D01*
X032817Y019817D01*
X032817Y019852D01*
X031915Y019852D01*
X031843Y019780D01*
X031833Y019583D01*
X031280Y019780D01*
X030675Y020384D01*
X030675Y020581D01*
X030675Y020187D01*
X029691Y019203D01*
X022935Y019203D01*
X022801Y019203D01*
X022211Y018612D01*
X022211Y017037D01*
X021030Y015856D01*
X020045Y015856D01*
X019849Y015463D02*
X019258Y016053D01*
X018667Y016053D01*
X018471Y015856D01*
X018667Y015463D02*
X018274Y015069D01*
X017880Y014675D01*
X017880Y012313D01*
X017880Y009360D01*
X017365Y008742D01*
X017376Y008742D01*
X018541Y007577D01*
X018541Y003002D01*
X017973Y002433D01*
X016435Y002433D01*
X016185Y002683D01*
X016185Y003160D01*
X016185Y003183D01*
X016185Y002683D02*
X015935Y002433D01*
X014730Y002433D01*
X014730Y002667D01*
X014730Y002433D02*
X011935Y002433D01*
X011685Y002683D01*
X011435Y002433D01*
X004185Y002433D01*
X003435Y003183D01*
X003435Y007433D01*
X002435Y008433D01*
X002435Y008933D01*
X010400Y007786D02*
X010400Y007589D01*
X010400Y007786D02*
X010793Y007786D01*
X011384Y008376D01*
X011778Y008376D01*
X012368Y008376D01*
X011778Y008376D02*
X010990Y009163D01*
X010990Y009951D01*
X010990Y010935D01*
X010990Y013100D01*
X011089Y013199D01*
X012368Y014478D01*
X012368Y015069D01*
X014140Y015069D01*
X014337Y014872D01*
X017093Y014872D01*
X017683Y014872D01*
X017880Y014675D01*
X018667Y015463D02*
X019061Y015660D01*
X019849Y015463D02*
X022014Y015463D01*
X022801Y016250D01*
X022801Y018415D01*
X022998Y018612D01*
X024967Y018612D01*
X031833Y020604D02*
X031856Y020581D01*
X031833Y020604D02*
X031833Y020764D01*
X032841Y020581D02*
X033234Y020974D01*
X035597Y020974D01*
X036581Y019990D01*
X036581Y018219D01*
X035723Y017360D01*
X035723Y016652D01*
X035445Y018461D02*
X034961Y018370D01*
X035445Y018461D02*
X035793Y018612D01*
X021620Y014085D02*
X021620Y012904D01*
X017365Y008742D02*
X016896Y008179D01*
X015124Y008179D01*
X017929Y006604D02*
X017929Y006260D01*
X017880Y006014D01*
X017738Y005959D01*
X017738Y005933D01*
X019110Y006358D02*
X019110Y006604D01*
X019110Y006358D02*
X019258Y006211D01*
X019258Y006801D01*
X019061Y006998D01*
X019061Y007786D01*
X011089Y006408D02*
X011089Y005915D01*
X010793Y005620D01*
X010203Y006211D02*
X010400Y006408D01*
X011039Y006358D02*
X011089Y006408D01*
X010793Y004439D02*
X010793Y004045D01*
X011685Y003160D02*
X011685Y002683D01*
X014730Y003849D02*
X015518Y003849D01*
X010400Y017382D02*
X010400Y017628D01*
X010597Y017628D01*
X012171Y017825D02*
X012368Y018022D01*
X012368Y018219D01*
D28*
X031856Y020581D03*
X033431Y020384D03*
X035793Y018612D03*
D29*
X030675Y020581D03*
X028510Y020581D03*
D30*
X022935Y020933D02*
X022935Y019203D01*
X022935Y019183D01*
X022935Y020933D02*
X022734Y021134D01*
X017636Y021134D01*
X016636Y021134D01*
X016435Y020933D01*
X017435Y020933D02*
X017636Y021134D01*
X010597Y015856D02*
X010400Y015660D01*
X010400Y015069D01*
D31*
X005085Y013888D03*
X005085Y017825D03*
X023982Y017825D03*
X028707Y017825D03*
X033431Y017825D03*
X038156Y017825D03*
X042880Y017825D03*
X047604Y017825D03*
X047604Y013888D03*
X042880Y013888D03*
X033431Y013888D03*
X028707Y013888D03*
X023982Y013691D03*
X023982Y009163D03*
X028707Y009163D03*
X033431Y009163D03*
X038156Y009163D03*
X047604Y009163D03*
X047604Y004439D03*
X042880Y004439D03*
X038156Y004439D03*
X033431Y004439D03*
X028707Y004439D03*
X023982Y004439D03*
D32*
X026738Y004144D03*
X019652Y004242D03*
X014534Y004439D03*
X013943Y005620D03*
X009809Y004439D03*
X005085Y004439D03*
X005085Y008376D03*
X009809Y009163D03*
X012959Y008770D03*
X014534Y008967D03*
X020045Y008376D03*
X023982Y010837D03*
X023293Y011132D03*
X021030Y011723D03*
X019652Y013297D03*
X018274Y013888D03*
X021226Y015069D03*
X023786Y015660D03*
X020833Y016250D03*
X019258Y017825D03*
X014534Y017825D03*
X011581Y017825D03*
X009809Y017825D03*
X010990Y014478D03*
X009809Y014282D03*
X007447Y013100D03*
X007250Y012707D03*
X008628Y011329D03*
X014534Y013100D03*
X038156Y013888D03*
X042880Y009163D03*
X049573Y008770D03*
X049376Y005886D03*
X049573Y013494D03*
X049573Y018219D03*
D33*
X050360Y018219D03*
X050360Y013494D03*
X050360Y008770D03*
M02*
