G75*
G70*
%OFA0B0*%
%FSLAX24Y24*%
%IPPOS*%
%LPD*%
%AMOC8*
5,1,8,0,0,1.08239X$1,22.5*
%
%ADD10C,0.0000*%
D10*
X001762Y001671D02*
X001762Y021392D01*
X050959Y021392D01*
X050959Y001671D01*
X001762Y001671D01*
X002093Y006408D02*
X002095Y006450D01*
X002101Y006491D01*
X002111Y006532D01*
X002125Y006571D01*
X002143Y006609D01*
X002164Y006645D01*
X002188Y006679D01*
X002216Y006710D01*
X002247Y006739D01*
X002280Y006764D01*
X002316Y006786D01*
X002353Y006805D01*
X002392Y006820D01*
X002433Y006831D01*
X002474Y006838D01*
X002516Y006841D01*
X002557Y006840D01*
X002599Y006835D01*
X002640Y006826D01*
X002680Y006813D01*
X002718Y006796D01*
X002754Y006776D01*
X002789Y006752D01*
X002821Y006725D01*
X002850Y006695D01*
X002876Y006663D01*
X002899Y006628D01*
X002919Y006590D01*
X002934Y006552D01*
X002946Y006512D01*
X002954Y006471D01*
X002958Y006429D01*
X002958Y006387D01*
X002954Y006345D01*
X002946Y006304D01*
X002934Y006264D01*
X002919Y006226D01*
X002899Y006188D01*
X002876Y006153D01*
X002850Y006121D01*
X002821Y006091D01*
X002789Y006064D01*
X002754Y006040D01*
X002718Y006020D01*
X002680Y006003D01*
X002640Y005990D01*
X002599Y005981D01*
X002557Y005976D01*
X002516Y005975D01*
X002474Y005978D01*
X002433Y005985D01*
X002392Y005996D01*
X002353Y006011D01*
X002316Y006030D01*
X002280Y006052D01*
X002247Y006077D01*
X002216Y006106D01*
X002188Y006137D01*
X002164Y006171D01*
X002143Y006207D01*
X002125Y006245D01*
X002111Y006284D01*
X002101Y006325D01*
X002095Y006366D01*
X002093Y006408D01*
X007014Y006408D02*
X007016Y006450D01*
X007022Y006491D01*
X007032Y006532D01*
X007046Y006571D01*
X007064Y006609D01*
X007085Y006645D01*
X007109Y006679D01*
X007137Y006710D01*
X007168Y006739D01*
X007201Y006764D01*
X007237Y006786D01*
X007274Y006805D01*
X007313Y006820D01*
X007354Y006831D01*
X007395Y006838D01*
X007437Y006841D01*
X007478Y006840D01*
X007520Y006835D01*
X007561Y006826D01*
X007601Y006813D01*
X007639Y006796D01*
X007675Y006776D01*
X007710Y006752D01*
X007742Y006725D01*
X007771Y006695D01*
X007797Y006663D01*
X007820Y006628D01*
X007840Y006590D01*
X007855Y006552D01*
X007867Y006512D01*
X007875Y006471D01*
X007879Y006429D01*
X007879Y006387D01*
X007875Y006345D01*
X007867Y006304D01*
X007855Y006264D01*
X007840Y006226D01*
X007820Y006188D01*
X007797Y006153D01*
X007771Y006121D01*
X007742Y006091D01*
X007710Y006064D01*
X007675Y006040D01*
X007639Y006020D01*
X007601Y006003D01*
X007561Y005990D01*
X007520Y005981D01*
X007478Y005976D01*
X007437Y005975D01*
X007395Y005978D01*
X007354Y005985D01*
X007313Y005996D01*
X007274Y006011D01*
X007237Y006030D01*
X007201Y006052D01*
X007168Y006077D01*
X007137Y006106D01*
X007109Y006137D01*
X007085Y006171D01*
X007064Y006207D01*
X007046Y006245D01*
X007032Y006284D01*
X007022Y006325D01*
X007016Y006366D01*
X007014Y006408D01*
X025912Y006408D02*
X025914Y006450D01*
X025920Y006491D01*
X025930Y006532D01*
X025944Y006571D01*
X025962Y006609D01*
X025983Y006645D01*
X026007Y006679D01*
X026035Y006710D01*
X026066Y006739D01*
X026099Y006764D01*
X026135Y006786D01*
X026172Y006805D01*
X026211Y006820D01*
X026252Y006831D01*
X026293Y006838D01*
X026335Y006841D01*
X026376Y006840D01*
X026418Y006835D01*
X026459Y006826D01*
X026499Y006813D01*
X026537Y006796D01*
X026573Y006776D01*
X026608Y006752D01*
X026640Y006725D01*
X026669Y006695D01*
X026695Y006663D01*
X026718Y006628D01*
X026738Y006590D01*
X026753Y006552D01*
X026765Y006512D01*
X026773Y006471D01*
X026777Y006429D01*
X026777Y006387D01*
X026773Y006345D01*
X026765Y006304D01*
X026753Y006264D01*
X026738Y006226D01*
X026718Y006188D01*
X026695Y006153D01*
X026669Y006121D01*
X026640Y006091D01*
X026608Y006064D01*
X026573Y006040D01*
X026537Y006020D01*
X026499Y006003D01*
X026459Y005990D01*
X026418Y005981D01*
X026376Y005976D01*
X026335Y005975D01*
X026293Y005978D01*
X026252Y005985D01*
X026211Y005996D01*
X026172Y006011D01*
X026135Y006030D01*
X026099Y006052D01*
X026066Y006077D01*
X026035Y006106D01*
X026007Y006137D01*
X025983Y006171D01*
X025962Y006207D01*
X025944Y006245D01*
X025930Y006284D01*
X025920Y006325D01*
X025914Y006366D01*
X025912Y006408D01*
X044809Y006408D02*
X044811Y006450D01*
X044817Y006491D01*
X044827Y006532D01*
X044841Y006571D01*
X044859Y006609D01*
X044880Y006645D01*
X044904Y006679D01*
X044932Y006710D01*
X044963Y006739D01*
X044996Y006764D01*
X045032Y006786D01*
X045069Y006805D01*
X045108Y006820D01*
X045149Y006831D01*
X045190Y006838D01*
X045232Y006841D01*
X045273Y006840D01*
X045315Y006835D01*
X045356Y006826D01*
X045396Y006813D01*
X045434Y006796D01*
X045470Y006776D01*
X045505Y006752D01*
X045537Y006725D01*
X045566Y006695D01*
X045592Y006663D01*
X045615Y006628D01*
X045635Y006590D01*
X045650Y006552D01*
X045662Y006512D01*
X045670Y006471D01*
X045674Y006429D01*
X045674Y006387D01*
X045670Y006345D01*
X045662Y006304D01*
X045650Y006264D01*
X045635Y006226D01*
X045615Y006188D01*
X045592Y006153D01*
X045566Y006121D01*
X045537Y006091D01*
X045505Y006064D01*
X045470Y006040D01*
X045434Y006020D01*
X045396Y006003D01*
X045356Y005990D01*
X045315Y005981D01*
X045273Y005976D01*
X045232Y005975D01*
X045190Y005978D01*
X045149Y005985D01*
X045108Y005996D01*
X045069Y006011D01*
X045032Y006030D01*
X044996Y006052D01*
X044963Y006077D01*
X044932Y006106D01*
X044904Y006137D01*
X044880Y006171D01*
X044859Y006207D01*
X044841Y006245D01*
X044827Y006284D01*
X044817Y006325D01*
X044811Y006366D01*
X044809Y006408D01*
X044612Y015856D02*
X044614Y015898D01*
X044620Y015939D01*
X044630Y015980D01*
X044644Y016019D01*
X044662Y016057D01*
X044683Y016093D01*
X044707Y016127D01*
X044735Y016158D01*
X044766Y016187D01*
X044799Y016212D01*
X044835Y016234D01*
X044872Y016253D01*
X044911Y016268D01*
X044952Y016279D01*
X044993Y016286D01*
X045035Y016289D01*
X045076Y016288D01*
X045118Y016283D01*
X045159Y016274D01*
X045199Y016261D01*
X045237Y016244D01*
X045273Y016224D01*
X045308Y016200D01*
X045340Y016173D01*
X045369Y016143D01*
X045395Y016111D01*
X045418Y016076D01*
X045438Y016038D01*
X045453Y016000D01*
X045465Y015960D01*
X045473Y015919D01*
X045477Y015877D01*
X045477Y015835D01*
X045473Y015793D01*
X045465Y015752D01*
X045453Y015712D01*
X045438Y015674D01*
X045418Y015636D01*
X045395Y015601D01*
X045369Y015569D01*
X045340Y015539D01*
X045308Y015512D01*
X045273Y015488D01*
X045237Y015468D01*
X045199Y015451D01*
X045159Y015438D01*
X045118Y015429D01*
X045076Y015424D01*
X045035Y015423D01*
X044993Y015426D01*
X044952Y015433D01*
X044911Y015444D01*
X044872Y015459D01*
X044835Y015478D01*
X044799Y015500D01*
X044766Y015525D01*
X044735Y015554D01*
X044707Y015585D01*
X044683Y015619D01*
X044662Y015655D01*
X044644Y015693D01*
X044630Y015732D01*
X044620Y015773D01*
X044614Y015814D01*
X044612Y015856D01*
X049730Y015856D02*
X049732Y015898D01*
X049738Y015939D01*
X049748Y015980D01*
X049762Y016019D01*
X049780Y016057D01*
X049801Y016093D01*
X049825Y016127D01*
X049853Y016158D01*
X049884Y016187D01*
X049917Y016212D01*
X049953Y016234D01*
X049990Y016253D01*
X050029Y016268D01*
X050070Y016279D01*
X050111Y016286D01*
X050153Y016289D01*
X050194Y016288D01*
X050236Y016283D01*
X050277Y016274D01*
X050317Y016261D01*
X050355Y016244D01*
X050391Y016224D01*
X050426Y016200D01*
X050458Y016173D01*
X050487Y016143D01*
X050513Y016111D01*
X050536Y016076D01*
X050556Y016038D01*
X050571Y016000D01*
X050583Y015960D01*
X050591Y015919D01*
X050595Y015877D01*
X050595Y015835D01*
X050591Y015793D01*
X050583Y015752D01*
X050571Y015712D01*
X050556Y015674D01*
X050536Y015636D01*
X050513Y015601D01*
X050487Y015569D01*
X050458Y015539D01*
X050426Y015512D01*
X050391Y015488D01*
X050355Y015468D01*
X050317Y015451D01*
X050277Y015438D01*
X050236Y015429D01*
X050194Y015424D01*
X050153Y015423D01*
X050111Y015426D01*
X050070Y015433D01*
X050029Y015444D01*
X049990Y015459D01*
X049953Y015478D01*
X049917Y015500D01*
X049884Y015525D01*
X049853Y015554D01*
X049825Y015585D01*
X049801Y015619D01*
X049780Y015655D01*
X049762Y015693D01*
X049748Y015732D01*
X049738Y015773D01*
X049732Y015814D01*
X049730Y015856D01*
X025912Y015856D02*
X025914Y015898D01*
X025920Y015939D01*
X025930Y015980D01*
X025944Y016019D01*
X025962Y016057D01*
X025983Y016093D01*
X026007Y016127D01*
X026035Y016158D01*
X026066Y016187D01*
X026099Y016212D01*
X026135Y016234D01*
X026172Y016253D01*
X026211Y016268D01*
X026252Y016279D01*
X026293Y016286D01*
X026335Y016289D01*
X026376Y016288D01*
X026418Y016283D01*
X026459Y016274D01*
X026499Y016261D01*
X026537Y016244D01*
X026573Y016224D01*
X026608Y016200D01*
X026640Y016173D01*
X026669Y016143D01*
X026695Y016111D01*
X026718Y016076D01*
X026738Y016038D01*
X026753Y016000D01*
X026765Y015960D01*
X026773Y015919D01*
X026777Y015877D01*
X026777Y015835D01*
X026773Y015793D01*
X026765Y015752D01*
X026753Y015712D01*
X026738Y015674D01*
X026718Y015636D01*
X026695Y015601D01*
X026669Y015569D01*
X026640Y015539D01*
X026608Y015512D01*
X026573Y015488D01*
X026537Y015468D01*
X026499Y015451D01*
X026459Y015438D01*
X026418Y015429D01*
X026376Y015424D01*
X026335Y015423D01*
X026293Y015426D01*
X026252Y015433D01*
X026211Y015444D01*
X026172Y015459D01*
X026135Y015478D01*
X026099Y015500D01*
X026066Y015525D01*
X026035Y015554D01*
X026007Y015585D01*
X025983Y015619D01*
X025962Y015655D01*
X025944Y015693D01*
X025930Y015732D01*
X025920Y015773D01*
X025914Y015814D01*
X025912Y015856D01*
X007014Y015856D02*
X007016Y015898D01*
X007022Y015939D01*
X007032Y015980D01*
X007046Y016019D01*
X007064Y016057D01*
X007085Y016093D01*
X007109Y016127D01*
X007137Y016158D01*
X007168Y016187D01*
X007201Y016212D01*
X007237Y016234D01*
X007274Y016253D01*
X007313Y016268D01*
X007354Y016279D01*
X007395Y016286D01*
X007437Y016289D01*
X007478Y016288D01*
X007520Y016283D01*
X007561Y016274D01*
X007601Y016261D01*
X007639Y016244D01*
X007675Y016224D01*
X007710Y016200D01*
X007742Y016173D01*
X007771Y016143D01*
X007797Y016111D01*
X007820Y016076D01*
X007840Y016038D01*
X007855Y016000D01*
X007867Y015960D01*
X007875Y015919D01*
X007879Y015877D01*
X007879Y015835D01*
X007875Y015793D01*
X007867Y015752D01*
X007855Y015712D01*
X007840Y015674D01*
X007820Y015636D01*
X007797Y015601D01*
X007771Y015569D01*
X007742Y015539D01*
X007710Y015512D01*
X007675Y015488D01*
X007639Y015468D01*
X007601Y015451D01*
X007561Y015438D01*
X007520Y015429D01*
X007478Y015424D01*
X007437Y015423D01*
X007395Y015426D01*
X007354Y015433D01*
X007313Y015444D01*
X007274Y015459D01*
X007237Y015478D01*
X007201Y015500D01*
X007168Y015525D01*
X007137Y015554D01*
X007109Y015585D01*
X007085Y015619D01*
X007064Y015655D01*
X007046Y015693D01*
X007032Y015732D01*
X007022Y015773D01*
X007016Y015814D01*
X007014Y015856D01*
X002093Y015856D02*
X002095Y015898D01*
X002101Y015939D01*
X002111Y015980D01*
X002125Y016019D01*
X002143Y016057D01*
X002164Y016093D01*
X002188Y016127D01*
X002216Y016158D01*
X002247Y016187D01*
X002280Y016212D01*
X002316Y016234D01*
X002353Y016253D01*
X002392Y016268D01*
X002433Y016279D01*
X002474Y016286D01*
X002516Y016289D01*
X002557Y016288D01*
X002599Y016283D01*
X002640Y016274D01*
X002680Y016261D01*
X002718Y016244D01*
X002754Y016224D01*
X002789Y016200D01*
X002821Y016173D01*
X002850Y016143D01*
X002876Y016111D01*
X002899Y016076D01*
X002919Y016038D01*
X002934Y016000D01*
X002946Y015960D01*
X002954Y015919D01*
X002958Y015877D01*
X002958Y015835D01*
X002954Y015793D01*
X002946Y015752D01*
X002934Y015712D01*
X002919Y015674D01*
X002899Y015636D01*
X002876Y015601D01*
X002850Y015569D01*
X002821Y015539D01*
X002789Y015512D01*
X002754Y015488D01*
X002718Y015468D01*
X002680Y015451D01*
X002640Y015438D01*
X002599Y015429D01*
X002557Y015424D01*
X002516Y015423D01*
X002474Y015426D01*
X002433Y015433D01*
X002392Y015444D01*
X002353Y015459D01*
X002316Y015478D01*
X002280Y015500D01*
X002247Y015525D01*
X002216Y015554D01*
X002188Y015585D01*
X002164Y015619D01*
X002143Y015655D01*
X002125Y015693D01*
X002111Y015732D01*
X002101Y015773D01*
X002095Y015814D01*
X002093Y015856D01*
M02*
