G75*
G70*
%OFA0B0*%
%FSLAX24Y24*%
%IPPOS*%
%LPD*%
%AMOC8*
5,1,8,0,0,1.08239X$1,22.5*
%
%ADD10C,0.0000*%
%ADD11C,0.0030*%
%ADD12C,0.0040*%
%ADD13C,0.0060*%
%ADD14C,0.0070*%
%ADD15C,0.0100*%
D10*
X001762Y001671D02*
X001762Y021392D01*
X050959Y021392D01*
X050959Y001671D01*
X001762Y001671D01*
X002093Y006408D02*
X002095Y006450D01*
X002101Y006491D01*
X002111Y006532D01*
X002125Y006571D01*
X002143Y006609D01*
X002164Y006645D01*
X002188Y006679D01*
X002216Y006710D01*
X002247Y006739D01*
X002280Y006764D01*
X002316Y006786D01*
X002353Y006805D01*
X002392Y006820D01*
X002433Y006831D01*
X002474Y006838D01*
X002516Y006841D01*
X002557Y006840D01*
X002599Y006835D01*
X002640Y006826D01*
X002680Y006813D01*
X002718Y006796D01*
X002754Y006776D01*
X002789Y006752D01*
X002821Y006725D01*
X002850Y006695D01*
X002876Y006663D01*
X002899Y006628D01*
X002919Y006590D01*
X002934Y006552D01*
X002946Y006512D01*
X002954Y006471D01*
X002958Y006429D01*
X002958Y006387D01*
X002954Y006345D01*
X002946Y006304D01*
X002934Y006264D01*
X002919Y006226D01*
X002899Y006188D01*
X002876Y006153D01*
X002850Y006121D01*
X002821Y006091D01*
X002789Y006064D01*
X002754Y006040D01*
X002718Y006020D01*
X002680Y006003D01*
X002640Y005990D01*
X002599Y005981D01*
X002557Y005976D01*
X002516Y005975D01*
X002474Y005978D01*
X002433Y005985D01*
X002392Y005996D01*
X002353Y006011D01*
X002316Y006030D01*
X002280Y006052D01*
X002247Y006077D01*
X002216Y006106D01*
X002188Y006137D01*
X002164Y006171D01*
X002143Y006207D01*
X002125Y006245D01*
X002111Y006284D01*
X002101Y006325D01*
X002095Y006366D01*
X002093Y006408D01*
X007014Y006408D02*
X007016Y006450D01*
X007022Y006491D01*
X007032Y006532D01*
X007046Y006571D01*
X007064Y006609D01*
X007085Y006645D01*
X007109Y006679D01*
X007137Y006710D01*
X007168Y006739D01*
X007201Y006764D01*
X007237Y006786D01*
X007274Y006805D01*
X007313Y006820D01*
X007354Y006831D01*
X007395Y006838D01*
X007437Y006841D01*
X007478Y006840D01*
X007520Y006835D01*
X007561Y006826D01*
X007601Y006813D01*
X007639Y006796D01*
X007675Y006776D01*
X007710Y006752D01*
X007742Y006725D01*
X007771Y006695D01*
X007797Y006663D01*
X007820Y006628D01*
X007840Y006590D01*
X007855Y006552D01*
X007867Y006512D01*
X007875Y006471D01*
X007879Y006429D01*
X007879Y006387D01*
X007875Y006345D01*
X007867Y006304D01*
X007855Y006264D01*
X007840Y006226D01*
X007820Y006188D01*
X007797Y006153D01*
X007771Y006121D01*
X007742Y006091D01*
X007710Y006064D01*
X007675Y006040D01*
X007639Y006020D01*
X007601Y006003D01*
X007561Y005990D01*
X007520Y005981D01*
X007478Y005976D01*
X007437Y005975D01*
X007395Y005978D01*
X007354Y005985D01*
X007313Y005996D01*
X007274Y006011D01*
X007237Y006030D01*
X007201Y006052D01*
X007168Y006077D01*
X007137Y006106D01*
X007109Y006137D01*
X007085Y006171D01*
X007064Y006207D01*
X007046Y006245D01*
X007032Y006284D01*
X007022Y006325D01*
X007016Y006366D01*
X007014Y006408D01*
X025912Y006408D02*
X025914Y006450D01*
X025920Y006491D01*
X025930Y006532D01*
X025944Y006571D01*
X025962Y006609D01*
X025983Y006645D01*
X026007Y006679D01*
X026035Y006710D01*
X026066Y006739D01*
X026099Y006764D01*
X026135Y006786D01*
X026172Y006805D01*
X026211Y006820D01*
X026252Y006831D01*
X026293Y006838D01*
X026335Y006841D01*
X026376Y006840D01*
X026418Y006835D01*
X026459Y006826D01*
X026499Y006813D01*
X026537Y006796D01*
X026573Y006776D01*
X026608Y006752D01*
X026640Y006725D01*
X026669Y006695D01*
X026695Y006663D01*
X026718Y006628D01*
X026738Y006590D01*
X026753Y006552D01*
X026765Y006512D01*
X026773Y006471D01*
X026777Y006429D01*
X026777Y006387D01*
X026773Y006345D01*
X026765Y006304D01*
X026753Y006264D01*
X026738Y006226D01*
X026718Y006188D01*
X026695Y006153D01*
X026669Y006121D01*
X026640Y006091D01*
X026608Y006064D01*
X026573Y006040D01*
X026537Y006020D01*
X026499Y006003D01*
X026459Y005990D01*
X026418Y005981D01*
X026376Y005976D01*
X026335Y005975D01*
X026293Y005978D01*
X026252Y005985D01*
X026211Y005996D01*
X026172Y006011D01*
X026135Y006030D01*
X026099Y006052D01*
X026066Y006077D01*
X026035Y006106D01*
X026007Y006137D01*
X025983Y006171D01*
X025962Y006207D01*
X025944Y006245D01*
X025930Y006284D01*
X025920Y006325D01*
X025914Y006366D01*
X025912Y006408D01*
X044809Y006408D02*
X044811Y006450D01*
X044817Y006491D01*
X044827Y006532D01*
X044841Y006571D01*
X044859Y006609D01*
X044880Y006645D01*
X044904Y006679D01*
X044932Y006710D01*
X044963Y006739D01*
X044996Y006764D01*
X045032Y006786D01*
X045069Y006805D01*
X045108Y006820D01*
X045149Y006831D01*
X045190Y006838D01*
X045232Y006841D01*
X045273Y006840D01*
X045315Y006835D01*
X045356Y006826D01*
X045396Y006813D01*
X045434Y006796D01*
X045470Y006776D01*
X045505Y006752D01*
X045537Y006725D01*
X045566Y006695D01*
X045592Y006663D01*
X045615Y006628D01*
X045635Y006590D01*
X045650Y006552D01*
X045662Y006512D01*
X045670Y006471D01*
X045674Y006429D01*
X045674Y006387D01*
X045670Y006345D01*
X045662Y006304D01*
X045650Y006264D01*
X045635Y006226D01*
X045615Y006188D01*
X045592Y006153D01*
X045566Y006121D01*
X045537Y006091D01*
X045505Y006064D01*
X045470Y006040D01*
X045434Y006020D01*
X045396Y006003D01*
X045356Y005990D01*
X045315Y005981D01*
X045273Y005976D01*
X045232Y005975D01*
X045190Y005978D01*
X045149Y005985D01*
X045108Y005996D01*
X045069Y006011D01*
X045032Y006030D01*
X044996Y006052D01*
X044963Y006077D01*
X044932Y006106D01*
X044904Y006137D01*
X044880Y006171D01*
X044859Y006207D01*
X044841Y006245D01*
X044827Y006284D01*
X044817Y006325D01*
X044811Y006366D01*
X044809Y006408D01*
X044612Y015856D02*
X044614Y015898D01*
X044620Y015939D01*
X044630Y015980D01*
X044644Y016019D01*
X044662Y016057D01*
X044683Y016093D01*
X044707Y016127D01*
X044735Y016158D01*
X044766Y016187D01*
X044799Y016212D01*
X044835Y016234D01*
X044872Y016253D01*
X044911Y016268D01*
X044952Y016279D01*
X044993Y016286D01*
X045035Y016289D01*
X045076Y016288D01*
X045118Y016283D01*
X045159Y016274D01*
X045199Y016261D01*
X045237Y016244D01*
X045273Y016224D01*
X045308Y016200D01*
X045340Y016173D01*
X045369Y016143D01*
X045395Y016111D01*
X045418Y016076D01*
X045438Y016038D01*
X045453Y016000D01*
X045465Y015960D01*
X045473Y015919D01*
X045477Y015877D01*
X045477Y015835D01*
X045473Y015793D01*
X045465Y015752D01*
X045453Y015712D01*
X045438Y015674D01*
X045418Y015636D01*
X045395Y015601D01*
X045369Y015569D01*
X045340Y015539D01*
X045308Y015512D01*
X045273Y015488D01*
X045237Y015468D01*
X045199Y015451D01*
X045159Y015438D01*
X045118Y015429D01*
X045076Y015424D01*
X045035Y015423D01*
X044993Y015426D01*
X044952Y015433D01*
X044911Y015444D01*
X044872Y015459D01*
X044835Y015478D01*
X044799Y015500D01*
X044766Y015525D01*
X044735Y015554D01*
X044707Y015585D01*
X044683Y015619D01*
X044662Y015655D01*
X044644Y015693D01*
X044630Y015732D01*
X044620Y015773D01*
X044614Y015814D01*
X044612Y015856D01*
X049730Y015856D02*
X049732Y015898D01*
X049738Y015939D01*
X049748Y015980D01*
X049762Y016019D01*
X049780Y016057D01*
X049801Y016093D01*
X049825Y016127D01*
X049853Y016158D01*
X049884Y016187D01*
X049917Y016212D01*
X049953Y016234D01*
X049990Y016253D01*
X050029Y016268D01*
X050070Y016279D01*
X050111Y016286D01*
X050153Y016289D01*
X050194Y016288D01*
X050236Y016283D01*
X050277Y016274D01*
X050317Y016261D01*
X050355Y016244D01*
X050391Y016224D01*
X050426Y016200D01*
X050458Y016173D01*
X050487Y016143D01*
X050513Y016111D01*
X050536Y016076D01*
X050556Y016038D01*
X050571Y016000D01*
X050583Y015960D01*
X050591Y015919D01*
X050595Y015877D01*
X050595Y015835D01*
X050591Y015793D01*
X050583Y015752D01*
X050571Y015712D01*
X050556Y015674D01*
X050536Y015636D01*
X050513Y015601D01*
X050487Y015569D01*
X050458Y015539D01*
X050426Y015512D01*
X050391Y015488D01*
X050355Y015468D01*
X050317Y015451D01*
X050277Y015438D01*
X050236Y015429D01*
X050194Y015424D01*
X050153Y015423D01*
X050111Y015426D01*
X050070Y015433D01*
X050029Y015444D01*
X049990Y015459D01*
X049953Y015478D01*
X049917Y015500D01*
X049884Y015525D01*
X049853Y015554D01*
X049825Y015585D01*
X049801Y015619D01*
X049780Y015655D01*
X049762Y015693D01*
X049748Y015732D01*
X049738Y015773D01*
X049732Y015814D01*
X049730Y015856D01*
X025912Y015856D02*
X025914Y015898D01*
X025920Y015939D01*
X025930Y015980D01*
X025944Y016019D01*
X025962Y016057D01*
X025983Y016093D01*
X026007Y016127D01*
X026035Y016158D01*
X026066Y016187D01*
X026099Y016212D01*
X026135Y016234D01*
X026172Y016253D01*
X026211Y016268D01*
X026252Y016279D01*
X026293Y016286D01*
X026335Y016289D01*
X026376Y016288D01*
X026418Y016283D01*
X026459Y016274D01*
X026499Y016261D01*
X026537Y016244D01*
X026573Y016224D01*
X026608Y016200D01*
X026640Y016173D01*
X026669Y016143D01*
X026695Y016111D01*
X026718Y016076D01*
X026738Y016038D01*
X026753Y016000D01*
X026765Y015960D01*
X026773Y015919D01*
X026777Y015877D01*
X026777Y015835D01*
X026773Y015793D01*
X026765Y015752D01*
X026753Y015712D01*
X026738Y015674D01*
X026718Y015636D01*
X026695Y015601D01*
X026669Y015569D01*
X026640Y015539D01*
X026608Y015512D01*
X026573Y015488D01*
X026537Y015468D01*
X026499Y015451D01*
X026459Y015438D01*
X026418Y015429D01*
X026376Y015424D01*
X026335Y015423D01*
X026293Y015426D01*
X026252Y015433D01*
X026211Y015444D01*
X026172Y015459D01*
X026135Y015478D01*
X026099Y015500D01*
X026066Y015525D01*
X026035Y015554D01*
X026007Y015585D01*
X025983Y015619D01*
X025962Y015655D01*
X025944Y015693D01*
X025930Y015732D01*
X025920Y015773D01*
X025914Y015814D01*
X025912Y015856D01*
X007014Y015856D02*
X007016Y015898D01*
X007022Y015939D01*
X007032Y015980D01*
X007046Y016019D01*
X007064Y016057D01*
X007085Y016093D01*
X007109Y016127D01*
X007137Y016158D01*
X007168Y016187D01*
X007201Y016212D01*
X007237Y016234D01*
X007274Y016253D01*
X007313Y016268D01*
X007354Y016279D01*
X007395Y016286D01*
X007437Y016289D01*
X007478Y016288D01*
X007520Y016283D01*
X007561Y016274D01*
X007601Y016261D01*
X007639Y016244D01*
X007675Y016224D01*
X007710Y016200D01*
X007742Y016173D01*
X007771Y016143D01*
X007797Y016111D01*
X007820Y016076D01*
X007840Y016038D01*
X007855Y016000D01*
X007867Y015960D01*
X007875Y015919D01*
X007879Y015877D01*
X007879Y015835D01*
X007875Y015793D01*
X007867Y015752D01*
X007855Y015712D01*
X007840Y015674D01*
X007820Y015636D01*
X007797Y015601D01*
X007771Y015569D01*
X007742Y015539D01*
X007710Y015512D01*
X007675Y015488D01*
X007639Y015468D01*
X007601Y015451D01*
X007561Y015438D01*
X007520Y015429D01*
X007478Y015424D01*
X007437Y015423D01*
X007395Y015426D01*
X007354Y015433D01*
X007313Y015444D01*
X007274Y015459D01*
X007237Y015478D01*
X007201Y015500D01*
X007168Y015525D01*
X007137Y015554D01*
X007109Y015585D01*
X007085Y015619D01*
X007064Y015655D01*
X007046Y015693D01*
X007032Y015732D01*
X007022Y015773D01*
X007016Y015814D01*
X007014Y015856D01*
X002093Y015856D02*
X002095Y015898D01*
X002101Y015939D01*
X002111Y015980D01*
X002125Y016019D01*
X002143Y016057D01*
X002164Y016093D01*
X002188Y016127D01*
X002216Y016158D01*
X002247Y016187D01*
X002280Y016212D01*
X002316Y016234D01*
X002353Y016253D01*
X002392Y016268D01*
X002433Y016279D01*
X002474Y016286D01*
X002516Y016289D01*
X002557Y016288D01*
X002599Y016283D01*
X002640Y016274D01*
X002680Y016261D01*
X002718Y016244D01*
X002754Y016224D01*
X002789Y016200D01*
X002821Y016173D01*
X002850Y016143D01*
X002876Y016111D01*
X002899Y016076D01*
X002919Y016038D01*
X002934Y016000D01*
X002946Y015960D01*
X002954Y015919D01*
X002958Y015877D01*
X002958Y015835D01*
X002954Y015793D01*
X002946Y015752D01*
X002934Y015712D01*
X002919Y015674D01*
X002899Y015636D01*
X002876Y015601D01*
X002850Y015569D01*
X002821Y015539D01*
X002789Y015512D01*
X002754Y015488D01*
X002718Y015468D01*
X002680Y015451D01*
X002640Y015438D01*
X002599Y015429D01*
X002557Y015424D01*
X002516Y015423D01*
X002474Y015426D01*
X002433Y015433D01*
X002392Y015444D01*
X002353Y015459D01*
X002316Y015478D01*
X002280Y015500D01*
X002247Y015525D01*
X002216Y015554D01*
X002188Y015585D01*
X002164Y015619D01*
X002143Y015655D01*
X002125Y015693D01*
X002111Y015732D01*
X002101Y015773D01*
X002095Y015814D01*
X002093Y015856D01*
D11*
X004208Y017578D02*
X004269Y017517D01*
X004516Y017517D01*
X004578Y017578D01*
X004578Y017702D01*
X004516Y017764D01*
X004393Y017885D02*
X004393Y018132D01*
X004578Y018070D02*
X004393Y017885D01*
X004269Y017764D02*
X004208Y017702D01*
X004208Y017578D01*
X003663Y017646D02*
X003601Y017584D01*
X003354Y017584D01*
X003293Y017646D01*
X003293Y017769D01*
X003354Y017831D01*
X003354Y017952D02*
X003293Y018014D01*
X003293Y018137D01*
X003354Y018199D01*
X003478Y018199D01*
X003539Y018137D01*
X003539Y018076D01*
X003478Y017952D01*
X003663Y017952D01*
X003663Y018199D01*
X003601Y017831D02*
X003663Y017769D01*
X003663Y017646D01*
X004208Y018070D02*
X004578Y018070D01*
X005208Y018070D02*
X005208Y017947D01*
X005269Y017885D01*
X005269Y017764D02*
X005208Y017702D01*
X005208Y017578D01*
X005269Y017517D01*
X005516Y017517D01*
X005578Y017578D01*
X005578Y017702D01*
X005516Y017764D01*
X005516Y017885D02*
X005578Y017947D01*
X005578Y018070D01*
X005516Y018132D01*
X005454Y018132D01*
X005393Y018070D01*
X005331Y018132D01*
X005269Y018132D01*
X005208Y018070D01*
X005393Y018070D02*
X005393Y018008D01*
X006208Y018132D02*
X006208Y017885D01*
X006454Y018132D01*
X006516Y018132D01*
X006578Y018070D01*
X006578Y017947D01*
X006516Y017885D01*
X006516Y017764D02*
X006578Y017702D01*
X006578Y017578D01*
X006516Y017517D01*
X006269Y017517D01*
X006208Y017578D01*
X006208Y017702D01*
X006269Y017764D01*
X007412Y018615D02*
X007659Y018615D01*
X007535Y018615D02*
X007535Y018985D01*
X007659Y018862D01*
X007780Y018924D02*
X007842Y018985D01*
X007965Y018985D01*
X008027Y018924D01*
X008027Y018677D01*
X007965Y018615D01*
X007842Y018615D01*
X007780Y018677D01*
X009412Y018708D02*
X009473Y018647D01*
X009597Y018647D01*
X009659Y018708D01*
X009659Y018770D01*
X009597Y018832D01*
X009473Y018832D01*
X009412Y018770D01*
X009412Y018708D01*
X009473Y018832D02*
X009412Y018893D01*
X009412Y018955D01*
X009473Y019017D01*
X009597Y019017D01*
X009659Y018955D01*
X009659Y018893D01*
X009597Y018832D01*
X009780Y018955D02*
X009842Y019017D01*
X009965Y019017D01*
X010027Y018955D01*
X010027Y018708D01*
X009965Y018647D01*
X009842Y018647D01*
X009780Y018708D01*
X011412Y018708D02*
X011412Y018770D01*
X011473Y018832D01*
X011659Y018832D01*
X011659Y018708D01*
X011597Y018647D01*
X011473Y018647D01*
X011412Y018708D01*
X011535Y018955D02*
X011659Y018832D01*
X011780Y018955D02*
X011842Y019017D01*
X011965Y019017D01*
X012027Y018955D01*
X012027Y018708D01*
X011965Y018647D01*
X011842Y018647D01*
X011780Y018708D01*
X011535Y018955D02*
X011412Y019017D01*
X012617Y019185D02*
X012679Y019123D01*
X012926Y019123D01*
X012987Y019185D01*
X012987Y019308D01*
X012926Y019370D01*
X012987Y019491D02*
X012987Y019738D01*
X012926Y019738D01*
X012679Y019491D01*
X012617Y019491D01*
X012679Y019370D02*
X012617Y019308D01*
X012617Y019185D01*
X011920Y018151D02*
X011920Y017905D01*
X011735Y017905D01*
X011797Y018028D01*
X011797Y018090D01*
X011735Y018151D01*
X011612Y018151D01*
X011550Y018090D01*
X011550Y017966D01*
X011612Y017905D01*
X011550Y017783D02*
X011550Y017536D01*
X011550Y017660D02*
X011920Y017660D01*
X011797Y017536D01*
X011859Y017415D02*
X011920Y017353D01*
X011920Y017230D01*
X011859Y017168D01*
X011612Y017168D01*
X011550Y017230D01*
X011550Y017353D01*
X011612Y017415D01*
X009952Y017315D02*
X009890Y017191D01*
X009767Y017068D01*
X009767Y017253D01*
X009705Y017315D01*
X009643Y017315D01*
X009582Y017253D01*
X009582Y017130D01*
X009643Y017068D01*
X009767Y017068D01*
X009582Y016947D02*
X009582Y016700D01*
X009582Y016823D02*
X009952Y016823D01*
X009828Y016700D01*
X009890Y016578D02*
X009952Y016517D01*
X009952Y016393D01*
X009890Y016331D01*
X009643Y016331D01*
X009582Y016393D01*
X009582Y016517D01*
X009643Y016578D01*
X016116Y019384D02*
X016116Y019631D01*
X016178Y019692D01*
X016301Y019692D01*
X016363Y019631D01*
X016363Y019569D01*
X016301Y019507D01*
X016116Y019507D01*
X016116Y019384D02*
X016178Y019322D01*
X016301Y019322D01*
X016363Y019384D01*
X016484Y019384D02*
X016546Y019322D01*
X016669Y019322D01*
X016731Y019384D01*
X016731Y019631D01*
X016669Y019692D01*
X016546Y019692D01*
X016484Y019631D01*
X019935Y013230D02*
X020121Y013045D01*
X019874Y013045D01*
X019935Y012860D02*
X019935Y013230D01*
X020365Y013230D02*
X020489Y013106D01*
X020610Y013168D02*
X020672Y013230D01*
X020795Y013230D01*
X020857Y013168D01*
X020857Y012921D01*
X020795Y012860D01*
X020672Y012860D01*
X020610Y012921D01*
X020489Y012860D02*
X020242Y012860D01*
X020365Y012860D02*
X020365Y013230D01*
X009840Y007305D02*
X009778Y007367D01*
X009717Y007367D01*
X009655Y007305D01*
X009593Y007367D01*
X009531Y007367D01*
X009470Y007305D01*
X009470Y007181D01*
X009531Y007120D01*
X009470Y006998D02*
X009470Y006751D01*
X009470Y006875D02*
X009840Y006875D01*
X009717Y006751D01*
X009778Y006630D02*
X009840Y006568D01*
X009840Y006445D01*
X009778Y006383D01*
X009531Y006383D01*
X009470Y006445D01*
X009470Y006568D01*
X009531Y006630D01*
X009778Y007120D02*
X009840Y007181D01*
X009840Y007305D01*
X009655Y007305D02*
X009655Y007243D01*
X009728Y005595D02*
X009667Y005533D01*
X009667Y005410D01*
X009728Y005348D01*
X009790Y005348D01*
X009852Y005410D01*
X009852Y005533D01*
X009790Y005595D01*
X009728Y005595D01*
X009852Y005533D02*
X009914Y005595D01*
X009975Y005595D01*
X010037Y005533D01*
X010037Y005410D01*
X009975Y005348D01*
X009914Y005348D01*
X009852Y005410D01*
X009667Y005227D02*
X009667Y004980D01*
X009667Y005103D02*
X010037Y005103D01*
X009914Y004980D01*
X009975Y004858D02*
X010037Y004797D01*
X010037Y004673D01*
X009975Y004612D01*
X009728Y004612D01*
X009667Y004673D01*
X009667Y004797D01*
X009728Y004858D01*
X013912Y003781D02*
X013912Y003535D01*
X014159Y003781D01*
X014221Y003781D01*
X014283Y003720D01*
X014283Y003596D01*
X014221Y003535D01*
X014283Y003290D02*
X013912Y003290D01*
X013912Y003413D02*
X013912Y003166D01*
X013974Y003045D02*
X013912Y002983D01*
X013912Y002860D01*
X013974Y002798D01*
X014221Y002798D01*
X014283Y002860D01*
X014283Y002983D01*
X014221Y003045D01*
X014159Y003166D02*
X014283Y003290D01*
X017996Y006095D02*
X018243Y005848D01*
X018243Y005786D01*
X018365Y005786D02*
X018611Y005786D01*
X018488Y005786D02*
X018488Y006157D01*
X018611Y006033D01*
X018733Y006095D02*
X018795Y006157D01*
X018918Y006157D01*
X018980Y006095D01*
X018980Y005848D01*
X018918Y005786D01*
X018795Y005786D01*
X018733Y005848D01*
X018243Y006157D02*
X017996Y006157D01*
X017996Y006095D01*
X035409Y018407D02*
X035409Y018531D01*
X035470Y018593D01*
X035409Y018714D02*
X035409Y018961D01*
X035409Y018838D02*
X035779Y018838D01*
X035656Y018714D01*
X035717Y018593D02*
X035779Y018531D01*
X035779Y018407D01*
X035717Y018346D01*
X035470Y018346D01*
X035409Y018407D01*
X035470Y019082D02*
X035409Y019144D01*
X035409Y019268D01*
X035470Y019329D01*
X035717Y019329D01*
X035470Y019082D01*
X035717Y019082D01*
X035779Y019144D01*
X035779Y019268D01*
X035717Y019329D01*
X031385Y019775D02*
X031323Y019713D01*
X031076Y019713D01*
X031015Y019775D01*
X031015Y019898D01*
X031076Y019960D01*
X031015Y020082D02*
X031015Y020328D01*
X031015Y020450D02*
X031015Y020697D01*
X031015Y020573D02*
X031385Y020573D01*
X031262Y020450D01*
X031385Y020205D02*
X031015Y020205D01*
X031262Y020082D02*
X031385Y020205D01*
X031323Y019960D02*
X031385Y019898D01*
X031385Y019775D01*
D12*
X033272Y020699D02*
X033349Y020622D01*
X033502Y020622D01*
X033579Y020699D01*
X033732Y020699D02*
X033732Y021083D01*
X033579Y021006D02*
X033502Y021083D01*
X033349Y021083D01*
X033272Y021006D01*
X033272Y020929D01*
X033349Y020853D01*
X033272Y020776D01*
X033272Y020699D01*
X033349Y020853D02*
X033425Y020853D01*
X033732Y020699D02*
X033809Y020622D01*
X033962Y020622D01*
X034039Y020699D01*
X034039Y021083D01*
X006404Y012054D02*
X006404Y011594D01*
X006404Y011747D02*
X006174Y011747D01*
X006097Y011824D01*
X006097Y011977D01*
X006174Y012054D01*
X006404Y012054D01*
X005944Y011977D02*
X005867Y012054D01*
X005714Y012054D01*
X005637Y011977D01*
X005637Y011901D01*
X005714Y011824D01*
X005637Y011747D01*
X005637Y011670D01*
X005714Y011594D01*
X005867Y011594D01*
X005944Y011670D01*
X006097Y011594D02*
X006251Y011747D01*
X005791Y011824D02*
X005714Y011824D01*
X005776Y011273D02*
X005776Y010813D01*
X005623Y010813D02*
X005930Y010813D01*
X006083Y010813D02*
X006236Y010966D01*
X006160Y010966D02*
X006390Y010966D01*
X006390Y010813D02*
X006390Y011273D01*
X006160Y011273D01*
X006083Y011196D01*
X006083Y011043D01*
X006160Y010966D01*
X005930Y011119D02*
X005776Y011273D01*
X004176Y008178D02*
X004253Y008101D01*
X004253Y007948D01*
X004176Y007871D01*
X004176Y007718D02*
X004023Y007718D01*
X003946Y007641D01*
X003946Y007411D01*
X003946Y007564D02*
X003793Y007718D01*
X003793Y007871D02*
X004099Y008178D01*
X004176Y008178D01*
X003793Y008178D02*
X003793Y007871D01*
X004176Y007718D02*
X004253Y007641D01*
X004253Y007411D01*
X003793Y007411D01*
X010510Y003436D02*
X010740Y003206D01*
X010433Y003206D01*
X010510Y002976D02*
X010510Y003436D01*
X010893Y003436D02*
X010893Y003053D01*
X010970Y002976D01*
X011123Y002976D01*
X011200Y003053D01*
X011200Y003436D01*
X015405Y004109D02*
X015405Y004263D01*
X015482Y004339D01*
X015865Y004339D01*
X015865Y004493D02*
X015635Y004493D01*
X015712Y004646D01*
X015712Y004723D01*
X015635Y004800D01*
X015482Y004800D01*
X015405Y004723D01*
X015405Y004569D01*
X015482Y004493D01*
X015865Y004493D02*
X015865Y004800D01*
X015865Y004032D02*
X015482Y004032D01*
X015405Y004109D01*
D13*
X018519Y007737D02*
X010745Y007737D01*
X010745Y015216D01*
X011040Y015511D01*
X018519Y015511D01*
X018519Y007737D01*
X004545Y010618D02*
X003836Y010618D01*
X003836Y011248D02*
X004545Y011248D01*
X004535Y011618D02*
X003826Y011618D01*
X003826Y012248D02*
X004535Y012248D01*
X004250Y009793D02*
X004250Y009084D01*
X003620Y009084D02*
X003620Y009793D01*
X011088Y014774D02*
X011090Y014814D01*
X011096Y014853D01*
X011106Y014892D01*
X011120Y014929D01*
X011138Y014965D01*
X011159Y014999D01*
X011183Y015031D01*
X011211Y015060D01*
X011241Y015086D01*
X011274Y015108D01*
X011308Y015128D01*
X011345Y015143D01*
X011383Y015155D01*
X011422Y015163D01*
X011462Y015167D01*
X011502Y015167D01*
X011542Y015163D01*
X011581Y015155D01*
X011619Y015143D01*
X011656Y015128D01*
X011690Y015108D01*
X011723Y015086D01*
X011753Y015060D01*
X011781Y015031D01*
X011805Y014999D01*
X011826Y014965D01*
X011844Y014929D01*
X011858Y014892D01*
X011868Y014853D01*
X011874Y014814D01*
X011876Y014774D01*
X011874Y014734D01*
X011868Y014695D01*
X011858Y014656D01*
X011844Y014619D01*
X011826Y014583D01*
X011805Y014549D01*
X011781Y014517D01*
X011753Y014488D01*
X011723Y014462D01*
X011690Y014440D01*
X011656Y014420D01*
X011619Y014405D01*
X011581Y014393D01*
X011542Y014385D01*
X011502Y014381D01*
X011462Y014381D01*
X011422Y014385D01*
X011383Y014393D01*
X011345Y014405D01*
X011308Y014420D01*
X011274Y014440D01*
X011241Y014462D01*
X011211Y014488D01*
X011183Y014517D01*
X011159Y014549D01*
X011138Y014583D01*
X011120Y014619D01*
X011106Y014656D01*
X011096Y014695D01*
X011090Y014734D01*
X011088Y014774D01*
D14*
X014282Y006940D02*
X014492Y006940D01*
X014597Y006835D01*
X014822Y006940D02*
X014822Y006414D01*
X014927Y006309D01*
X015137Y006309D01*
X015242Y006414D01*
X015242Y006940D01*
X014282Y006940D02*
X014177Y006835D01*
X014177Y006729D01*
X014597Y006309D01*
X014177Y006309D01*
D15*
X029723Y006152D02*
X034223Y006152D01*
X037223Y006152D02*
X041723Y006152D01*
X041723Y016152D01*
X037223Y016152D01*
X034223Y016152D02*
X029723Y016152D01*
X029723Y006152D01*
M02*
