G75*
G70*
%OFA0B0*%
%FSLAX24Y24*%
%IPPOS*%
%LPD*%
%AMOC8*
5,1,8,0,0,1.08239X$1,22.5*
%
%ADD10C,0.0000*%
%ADD11C,0.0946*%
%ADD12C,0.1261*%
%ADD13C,0.0360*%
%ADD14C,0.0860*%
%ADD15OC8,0.0600*%
%ADD16C,0.0595*%
%ADD17R,0.0358X0.0358*%
%ADD18R,0.0476X0.0476*%
%ADD19R,0.0671X0.0671*%
%ADD20OC8,0.0476*%
%ADD21OC8,0.0358*%
%ADD22OC8,0.0555*%
D10*
X001762Y001671D02*
X001762Y021392D01*
X050959Y021392D01*
X050959Y001671D01*
X001762Y001671D01*
X002093Y006408D02*
X002095Y006450D01*
X002101Y006491D01*
X002111Y006532D01*
X002125Y006571D01*
X002143Y006609D01*
X002164Y006645D01*
X002188Y006679D01*
X002216Y006710D01*
X002247Y006739D01*
X002280Y006764D01*
X002316Y006786D01*
X002353Y006805D01*
X002392Y006820D01*
X002433Y006831D01*
X002474Y006838D01*
X002516Y006841D01*
X002557Y006840D01*
X002599Y006835D01*
X002640Y006826D01*
X002680Y006813D01*
X002718Y006796D01*
X002754Y006776D01*
X002789Y006752D01*
X002821Y006725D01*
X002850Y006695D01*
X002876Y006663D01*
X002899Y006628D01*
X002919Y006590D01*
X002934Y006552D01*
X002946Y006512D01*
X002954Y006471D01*
X002958Y006429D01*
X002958Y006387D01*
X002954Y006345D01*
X002946Y006304D01*
X002934Y006264D01*
X002919Y006226D01*
X002899Y006188D01*
X002876Y006153D01*
X002850Y006121D01*
X002821Y006091D01*
X002789Y006064D01*
X002754Y006040D01*
X002718Y006020D01*
X002680Y006003D01*
X002640Y005990D01*
X002599Y005981D01*
X002557Y005976D01*
X002516Y005975D01*
X002474Y005978D01*
X002433Y005985D01*
X002392Y005996D01*
X002353Y006011D01*
X002316Y006030D01*
X002280Y006052D01*
X002247Y006077D01*
X002216Y006106D01*
X002188Y006137D01*
X002164Y006171D01*
X002143Y006207D01*
X002125Y006245D01*
X002111Y006284D01*
X002101Y006325D01*
X002095Y006366D01*
X002093Y006408D01*
X007014Y006408D02*
X007016Y006450D01*
X007022Y006491D01*
X007032Y006532D01*
X007046Y006571D01*
X007064Y006609D01*
X007085Y006645D01*
X007109Y006679D01*
X007137Y006710D01*
X007168Y006739D01*
X007201Y006764D01*
X007237Y006786D01*
X007274Y006805D01*
X007313Y006820D01*
X007354Y006831D01*
X007395Y006838D01*
X007437Y006841D01*
X007478Y006840D01*
X007520Y006835D01*
X007561Y006826D01*
X007601Y006813D01*
X007639Y006796D01*
X007675Y006776D01*
X007710Y006752D01*
X007742Y006725D01*
X007771Y006695D01*
X007797Y006663D01*
X007820Y006628D01*
X007840Y006590D01*
X007855Y006552D01*
X007867Y006512D01*
X007875Y006471D01*
X007879Y006429D01*
X007879Y006387D01*
X007875Y006345D01*
X007867Y006304D01*
X007855Y006264D01*
X007840Y006226D01*
X007820Y006188D01*
X007797Y006153D01*
X007771Y006121D01*
X007742Y006091D01*
X007710Y006064D01*
X007675Y006040D01*
X007639Y006020D01*
X007601Y006003D01*
X007561Y005990D01*
X007520Y005981D01*
X007478Y005976D01*
X007437Y005975D01*
X007395Y005978D01*
X007354Y005985D01*
X007313Y005996D01*
X007274Y006011D01*
X007237Y006030D01*
X007201Y006052D01*
X007168Y006077D01*
X007137Y006106D01*
X007109Y006137D01*
X007085Y006171D01*
X007064Y006207D01*
X007046Y006245D01*
X007032Y006284D01*
X007022Y006325D01*
X007016Y006366D01*
X007014Y006408D01*
X025912Y006408D02*
X025914Y006450D01*
X025920Y006491D01*
X025930Y006532D01*
X025944Y006571D01*
X025962Y006609D01*
X025983Y006645D01*
X026007Y006679D01*
X026035Y006710D01*
X026066Y006739D01*
X026099Y006764D01*
X026135Y006786D01*
X026172Y006805D01*
X026211Y006820D01*
X026252Y006831D01*
X026293Y006838D01*
X026335Y006841D01*
X026376Y006840D01*
X026418Y006835D01*
X026459Y006826D01*
X026499Y006813D01*
X026537Y006796D01*
X026573Y006776D01*
X026608Y006752D01*
X026640Y006725D01*
X026669Y006695D01*
X026695Y006663D01*
X026718Y006628D01*
X026738Y006590D01*
X026753Y006552D01*
X026765Y006512D01*
X026773Y006471D01*
X026777Y006429D01*
X026777Y006387D01*
X026773Y006345D01*
X026765Y006304D01*
X026753Y006264D01*
X026738Y006226D01*
X026718Y006188D01*
X026695Y006153D01*
X026669Y006121D01*
X026640Y006091D01*
X026608Y006064D01*
X026573Y006040D01*
X026537Y006020D01*
X026499Y006003D01*
X026459Y005990D01*
X026418Y005981D01*
X026376Y005976D01*
X026335Y005975D01*
X026293Y005978D01*
X026252Y005985D01*
X026211Y005996D01*
X026172Y006011D01*
X026135Y006030D01*
X026099Y006052D01*
X026066Y006077D01*
X026035Y006106D01*
X026007Y006137D01*
X025983Y006171D01*
X025962Y006207D01*
X025944Y006245D01*
X025930Y006284D01*
X025920Y006325D01*
X025914Y006366D01*
X025912Y006408D01*
X044809Y006408D02*
X044811Y006450D01*
X044817Y006491D01*
X044827Y006532D01*
X044841Y006571D01*
X044859Y006609D01*
X044880Y006645D01*
X044904Y006679D01*
X044932Y006710D01*
X044963Y006739D01*
X044996Y006764D01*
X045032Y006786D01*
X045069Y006805D01*
X045108Y006820D01*
X045149Y006831D01*
X045190Y006838D01*
X045232Y006841D01*
X045273Y006840D01*
X045315Y006835D01*
X045356Y006826D01*
X045396Y006813D01*
X045434Y006796D01*
X045470Y006776D01*
X045505Y006752D01*
X045537Y006725D01*
X045566Y006695D01*
X045592Y006663D01*
X045615Y006628D01*
X045635Y006590D01*
X045650Y006552D01*
X045662Y006512D01*
X045670Y006471D01*
X045674Y006429D01*
X045674Y006387D01*
X045670Y006345D01*
X045662Y006304D01*
X045650Y006264D01*
X045635Y006226D01*
X045615Y006188D01*
X045592Y006153D01*
X045566Y006121D01*
X045537Y006091D01*
X045505Y006064D01*
X045470Y006040D01*
X045434Y006020D01*
X045396Y006003D01*
X045356Y005990D01*
X045315Y005981D01*
X045273Y005976D01*
X045232Y005975D01*
X045190Y005978D01*
X045149Y005985D01*
X045108Y005996D01*
X045069Y006011D01*
X045032Y006030D01*
X044996Y006052D01*
X044963Y006077D01*
X044932Y006106D01*
X044904Y006137D01*
X044880Y006171D01*
X044859Y006207D01*
X044841Y006245D01*
X044827Y006284D01*
X044817Y006325D01*
X044811Y006366D01*
X044809Y006408D01*
X044612Y015856D02*
X044614Y015898D01*
X044620Y015939D01*
X044630Y015980D01*
X044644Y016019D01*
X044662Y016057D01*
X044683Y016093D01*
X044707Y016127D01*
X044735Y016158D01*
X044766Y016187D01*
X044799Y016212D01*
X044835Y016234D01*
X044872Y016253D01*
X044911Y016268D01*
X044952Y016279D01*
X044993Y016286D01*
X045035Y016289D01*
X045076Y016288D01*
X045118Y016283D01*
X045159Y016274D01*
X045199Y016261D01*
X045237Y016244D01*
X045273Y016224D01*
X045308Y016200D01*
X045340Y016173D01*
X045369Y016143D01*
X045395Y016111D01*
X045418Y016076D01*
X045438Y016038D01*
X045453Y016000D01*
X045465Y015960D01*
X045473Y015919D01*
X045477Y015877D01*
X045477Y015835D01*
X045473Y015793D01*
X045465Y015752D01*
X045453Y015712D01*
X045438Y015674D01*
X045418Y015636D01*
X045395Y015601D01*
X045369Y015569D01*
X045340Y015539D01*
X045308Y015512D01*
X045273Y015488D01*
X045237Y015468D01*
X045199Y015451D01*
X045159Y015438D01*
X045118Y015429D01*
X045076Y015424D01*
X045035Y015423D01*
X044993Y015426D01*
X044952Y015433D01*
X044911Y015444D01*
X044872Y015459D01*
X044835Y015478D01*
X044799Y015500D01*
X044766Y015525D01*
X044735Y015554D01*
X044707Y015585D01*
X044683Y015619D01*
X044662Y015655D01*
X044644Y015693D01*
X044630Y015732D01*
X044620Y015773D01*
X044614Y015814D01*
X044612Y015856D01*
X049730Y015856D02*
X049732Y015898D01*
X049738Y015939D01*
X049748Y015980D01*
X049762Y016019D01*
X049780Y016057D01*
X049801Y016093D01*
X049825Y016127D01*
X049853Y016158D01*
X049884Y016187D01*
X049917Y016212D01*
X049953Y016234D01*
X049990Y016253D01*
X050029Y016268D01*
X050070Y016279D01*
X050111Y016286D01*
X050153Y016289D01*
X050194Y016288D01*
X050236Y016283D01*
X050277Y016274D01*
X050317Y016261D01*
X050355Y016244D01*
X050391Y016224D01*
X050426Y016200D01*
X050458Y016173D01*
X050487Y016143D01*
X050513Y016111D01*
X050536Y016076D01*
X050556Y016038D01*
X050571Y016000D01*
X050583Y015960D01*
X050591Y015919D01*
X050595Y015877D01*
X050595Y015835D01*
X050591Y015793D01*
X050583Y015752D01*
X050571Y015712D01*
X050556Y015674D01*
X050536Y015636D01*
X050513Y015601D01*
X050487Y015569D01*
X050458Y015539D01*
X050426Y015512D01*
X050391Y015488D01*
X050355Y015468D01*
X050317Y015451D01*
X050277Y015438D01*
X050236Y015429D01*
X050194Y015424D01*
X050153Y015423D01*
X050111Y015426D01*
X050070Y015433D01*
X050029Y015444D01*
X049990Y015459D01*
X049953Y015478D01*
X049917Y015500D01*
X049884Y015525D01*
X049853Y015554D01*
X049825Y015585D01*
X049801Y015619D01*
X049780Y015655D01*
X049762Y015693D01*
X049748Y015732D01*
X049738Y015773D01*
X049732Y015814D01*
X049730Y015856D01*
X025912Y015856D02*
X025914Y015898D01*
X025920Y015939D01*
X025930Y015980D01*
X025944Y016019D01*
X025962Y016057D01*
X025983Y016093D01*
X026007Y016127D01*
X026035Y016158D01*
X026066Y016187D01*
X026099Y016212D01*
X026135Y016234D01*
X026172Y016253D01*
X026211Y016268D01*
X026252Y016279D01*
X026293Y016286D01*
X026335Y016289D01*
X026376Y016288D01*
X026418Y016283D01*
X026459Y016274D01*
X026499Y016261D01*
X026537Y016244D01*
X026573Y016224D01*
X026608Y016200D01*
X026640Y016173D01*
X026669Y016143D01*
X026695Y016111D01*
X026718Y016076D01*
X026738Y016038D01*
X026753Y016000D01*
X026765Y015960D01*
X026773Y015919D01*
X026777Y015877D01*
X026777Y015835D01*
X026773Y015793D01*
X026765Y015752D01*
X026753Y015712D01*
X026738Y015674D01*
X026718Y015636D01*
X026695Y015601D01*
X026669Y015569D01*
X026640Y015539D01*
X026608Y015512D01*
X026573Y015488D01*
X026537Y015468D01*
X026499Y015451D01*
X026459Y015438D01*
X026418Y015429D01*
X026376Y015424D01*
X026335Y015423D01*
X026293Y015426D01*
X026252Y015433D01*
X026211Y015444D01*
X026172Y015459D01*
X026135Y015478D01*
X026099Y015500D01*
X026066Y015525D01*
X026035Y015554D01*
X026007Y015585D01*
X025983Y015619D01*
X025962Y015655D01*
X025944Y015693D01*
X025930Y015732D01*
X025920Y015773D01*
X025914Y015814D01*
X025912Y015856D01*
X007014Y015856D02*
X007016Y015898D01*
X007022Y015939D01*
X007032Y015980D01*
X007046Y016019D01*
X007064Y016057D01*
X007085Y016093D01*
X007109Y016127D01*
X007137Y016158D01*
X007168Y016187D01*
X007201Y016212D01*
X007237Y016234D01*
X007274Y016253D01*
X007313Y016268D01*
X007354Y016279D01*
X007395Y016286D01*
X007437Y016289D01*
X007478Y016288D01*
X007520Y016283D01*
X007561Y016274D01*
X007601Y016261D01*
X007639Y016244D01*
X007675Y016224D01*
X007710Y016200D01*
X007742Y016173D01*
X007771Y016143D01*
X007797Y016111D01*
X007820Y016076D01*
X007840Y016038D01*
X007855Y016000D01*
X007867Y015960D01*
X007875Y015919D01*
X007879Y015877D01*
X007879Y015835D01*
X007875Y015793D01*
X007867Y015752D01*
X007855Y015712D01*
X007840Y015674D01*
X007820Y015636D01*
X007797Y015601D01*
X007771Y015569D01*
X007742Y015539D01*
X007710Y015512D01*
X007675Y015488D01*
X007639Y015468D01*
X007601Y015451D01*
X007561Y015438D01*
X007520Y015429D01*
X007478Y015424D01*
X007437Y015423D01*
X007395Y015426D01*
X007354Y015433D01*
X007313Y015444D01*
X007274Y015459D01*
X007237Y015478D01*
X007201Y015500D01*
X007168Y015525D01*
X007137Y015554D01*
X007109Y015585D01*
X007085Y015619D01*
X007064Y015655D01*
X007046Y015693D01*
X007032Y015732D01*
X007022Y015773D01*
X007016Y015814D01*
X007014Y015856D01*
X002093Y015856D02*
X002095Y015898D01*
X002101Y015939D01*
X002111Y015980D01*
X002125Y016019D01*
X002143Y016057D01*
X002164Y016093D01*
X002188Y016127D01*
X002216Y016158D01*
X002247Y016187D01*
X002280Y016212D01*
X002316Y016234D01*
X002353Y016253D01*
X002392Y016268D01*
X002433Y016279D01*
X002474Y016286D01*
X002516Y016289D01*
X002557Y016288D01*
X002599Y016283D01*
X002640Y016274D01*
X002680Y016261D01*
X002718Y016244D01*
X002754Y016224D01*
X002789Y016200D01*
X002821Y016173D01*
X002850Y016143D01*
X002876Y016111D01*
X002899Y016076D01*
X002919Y016038D01*
X002934Y016000D01*
X002946Y015960D01*
X002954Y015919D01*
X002958Y015877D01*
X002958Y015835D01*
X002954Y015793D01*
X002946Y015752D01*
X002934Y015712D01*
X002919Y015674D01*
X002899Y015636D01*
X002876Y015601D01*
X002850Y015569D01*
X002821Y015539D01*
X002789Y015512D01*
X002754Y015488D01*
X002718Y015468D01*
X002680Y015451D01*
X002640Y015438D01*
X002599Y015429D01*
X002557Y015424D01*
X002516Y015423D01*
X002474Y015426D01*
X002433Y015433D01*
X002392Y015444D01*
X002353Y015459D01*
X002316Y015478D01*
X002280Y015500D01*
X002247Y015525D01*
X002216Y015554D01*
X002188Y015585D01*
X002164Y015619D01*
X002143Y015655D01*
X002125Y015693D01*
X002111Y015732D01*
X002101Y015773D01*
X002095Y015814D01*
X002093Y015856D01*
D11*
X002526Y015856D03*
X007447Y015856D03*
X026345Y015856D03*
X045045Y015856D03*
X050163Y015856D03*
X045242Y006408D03*
X026345Y006408D03*
X007447Y006408D03*
X002526Y006408D03*
D12*
X005085Y008770D03*
X009809Y008770D03*
X014534Y008770D03*
X019258Y008770D03*
X023982Y008770D03*
X028707Y008770D03*
X033431Y008770D03*
X038156Y008770D03*
X042880Y008770D03*
X047604Y008770D03*
X047604Y004045D03*
X042880Y004045D03*
X038156Y004045D03*
X033431Y004045D03*
X028707Y004045D03*
X023982Y004045D03*
X019258Y004045D03*
X014534Y004045D03*
X009809Y004045D03*
X005085Y004045D03*
X005085Y013494D03*
X009809Y013494D03*
X014534Y013494D03*
X019258Y013494D03*
X023982Y013494D03*
X028707Y013494D03*
X033431Y013494D03*
X038156Y013494D03*
X042880Y013494D03*
X047604Y013494D03*
X047604Y018219D03*
X042880Y018219D03*
X038156Y018219D03*
X033431Y018219D03*
X028707Y018219D03*
X023982Y018219D03*
X019258Y018219D03*
X014534Y018219D03*
X009809Y018219D03*
X005085Y018219D03*
D13*
X006716Y018219D02*
X006996Y018219D01*
X007897Y018219D02*
X008177Y018219D01*
X011441Y018219D02*
X011721Y018219D01*
X012622Y018219D02*
X012902Y018219D01*
X016165Y018219D02*
X016445Y018219D01*
X017346Y018219D02*
X017626Y018219D01*
X020890Y018219D02*
X021170Y018219D01*
X022071Y018219D02*
X022351Y018219D01*
X025614Y018219D02*
X025894Y018219D01*
X026795Y018219D02*
X027075Y018219D01*
X030338Y018219D02*
X030618Y018219D01*
X031520Y018219D02*
X031800Y018219D01*
X035063Y018219D02*
X035343Y018219D01*
X036244Y018219D02*
X036524Y018219D01*
X039787Y018219D02*
X040067Y018219D01*
X040968Y018219D02*
X041248Y018219D01*
X044512Y018219D02*
X044792Y018219D01*
X045693Y018219D02*
X045973Y018219D01*
X049236Y018219D02*
X049516Y018219D01*
X049516Y013494D02*
X049236Y013494D01*
X045973Y013494D02*
X045693Y013494D01*
X044792Y013494D02*
X044512Y013494D01*
X041248Y013494D02*
X040968Y013494D01*
X040067Y013494D02*
X039787Y013494D01*
X036524Y013494D02*
X036244Y013494D01*
X035343Y013494D02*
X035063Y013494D01*
X031800Y013494D02*
X031520Y013494D01*
X030618Y013494D02*
X030338Y013494D01*
X027075Y013494D02*
X026795Y013494D01*
X025894Y013494D02*
X025614Y013494D01*
X022351Y013494D02*
X022071Y013494D01*
X021170Y013494D02*
X020890Y013494D01*
X017626Y013494D02*
X017346Y013494D01*
X016445Y013494D02*
X016165Y013494D01*
X012902Y013494D02*
X012622Y013494D01*
X011721Y013494D02*
X011441Y013494D01*
X008177Y013494D02*
X007897Y013494D01*
X006996Y013494D02*
X006716Y013494D01*
X003453Y013494D02*
X003173Y013494D01*
X003173Y018219D02*
X003453Y018219D01*
X003453Y008770D02*
X003173Y008770D01*
X006716Y008770D02*
X006996Y008770D01*
X007897Y008770D02*
X008177Y008770D01*
X011441Y008770D02*
X011721Y008770D01*
X012622Y008770D02*
X012902Y008770D01*
X016165Y008770D02*
X016445Y008770D01*
X017346Y008770D02*
X017626Y008770D01*
X020890Y008770D02*
X021170Y008770D01*
X022071Y008770D02*
X022351Y008770D01*
X025614Y008770D02*
X025894Y008770D01*
X026795Y008770D02*
X027075Y008770D01*
X030338Y008770D02*
X030618Y008770D01*
X031520Y008770D02*
X031800Y008770D01*
X035063Y008770D02*
X035343Y008770D01*
X036244Y008770D02*
X036524Y008770D01*
X039787Y008770D02*
X040067Y008770D01*
X040968Y008770D02*
X041248Y008770D01*
X044512Y008770D02*
X044792Y008770D01*
X045693Y008770D02*
X045973Y008770D01*
X049236Y008770D02*
X049516Y008770D01*
X049516Y004045D02*
X049236Y004045D01*
X045973Y004045D02*
X045693Y004045D01*
X044792Y004045D02*
X044512Y004045D01*
X041248Y004045D02*
X040968Y004045D01*
X040067Y004045D02*
X039787Y004045D01*
X036524Y004045D02*
X036244Y004045D01*
X035343Y004045D02*
X035063Y004045D01*
X031800Y004045D02*
X031520Y004045D01*
X030618Y004045D02*
X030338Y004045D01*
X027075Y004045D02*
X026795Y004045D01*
X025894Y004045D02*
X025614Y004045D01*
X022351Y004045D02*
X022071Y004045D01*
X021170Y004045D02*
X020890Y004045D01*
X017626Y004045D02*
X017346Y004045D01*
X016445Y004045D02*
X016165Y004045D01*
X012902Y004045D02*
X012622Y004045D01*
X011721Y004045D02*
X011441Y004045D01*
X008177Y004045D02*
X007897Y004045D01*
X006996Y004045D02*
X006716Y004045D01*
X003453Y004045D02*
X003173Y004045D01*
D14*
X004248Y005522D02*
X004141Y005454D01*
X004039Y005379D01*
X003943Y005296D01*
X003853Y005206D01*
X003771Y005109D01*
X003696Y005006D01*
X003629Y004898D01*
X003571Y004786D01*
X003521Y004669D01*
X003480Y004548D01*
X003449Y004425D01*
X003427Y004300D01*
X003414Y004174D01*
X003411Y004047D01*
X003418Y003920D01*
X003434Y003794D01*
X003460Y003670D01*
X003495Y003548D01*
X003540Y003429D01*
X003593Y003313D01*
X003655Y003202D01*
X003725Y003096D01*
X003803Y002996D01*
X003888Y002902D01*
X003980Y002815D01*
X004078Y002734D01*
X004183Y002662D01*
X004292Y002598D01*
X004406Y002542D01*
X004524Y002495D01*
X004646Y002457D01*
X004769Y002428D01*
X004895Y002409D01*
X005021Y002399D01*
X005149Y002399D01*
X005275Y002409D01*
X005401Y002428D01*
X005524Y002457D01*
X005646Y002495D01*
X005764Y002542D01*
X005878Y002598D01*
X005987Y002662D01*
X006092Y002734D01*
X006190Y002815D01*
X006282Y002902D01*
X006367Y002996D01*
X006445Y003096D01*
X006515Y003202D01*
X006577Y003313D01*
X006630Y003429D01*
X006675Y003548D01*
X006710Y003670D01*
X006736Y003794D01*
X006752Y003920D01*
X006759Y004047D01*
X006756Y004174D01*
X006743Y004300D01*
X006721Y004425D01*
X006690Y004548D01*
X006649Y004669D01*
X006599Y004786D01*
X006541Y004898D01*
X006474Y005006D01*
X006399Y005109D01*
X006317Y005206D01*
X006227Y005296D01*
X006131Y005379D01*
X006029Y005454D01*
X005922Y005522D01*
X008972Y005522D02*
X008865Y005454D01*
X008763Y005379D01*
X008667Y005296D01*
X008577Y005206D01*
X008495Y005109D01*
X008420Y005006D01*
X008353Y004898D01*
X008295Y004786D01*
X008245Y004669D01*
X008204Y004548D01*
X008173Y004425D01*
X008151Y004300D01*
X008138Y004174D01*
X008135Y004047D01*
X008142Y003920D01*
X008158Y003794D01*
X008184Y003670D01*
X008219Y003548D01*
X008264Y003429D01*
X008317Y003313D01*
X008379Y003202D01*
X008449Y003096D01*
X008527Y002996D01*
X008612Y002902D01*
X008704Y002815D01*
X008802Y002734D01*
X008907Y002662D01*
X009016Y002598D01*
X009130Y002542D01*
X009248Y002495D01*
X009370Y002457D01*
X009493Y002428D01*
X009619Y002409D01*
X009745Y002399D01*
X009873Y002399D01*
X009999Y002409D01*
X010125Y002428D01*
X010248Y002457D01*
X010370Y002495D01*
X010488Y002542D01*
X010602Y002598D01*
X010711Y002662D01*
X010816Y002734D01*
X010914Y002815D01*
X011006Y002902D01*
X011091Y002996D01*
X011169Y003096D01*
X011239Y003202D01*
X011301Y003313D01*
X011354Y003429D01*
X011399Y003548D01*
X011434Y003670D01*
X011460Y003794D01*
X011476Y003920D01*
X011483Y004047D01*
X011480Y004174D01*
X011467Y004300D01*
X011445Y004425D01*
X011414Y004548D01*
X011373Y004669D01*
X011323Y004786D01*
X011265Y004898D01*
X011198Y005006D01*
X011123Y005109D01*
X011041Y005206D01*
X010951Y005296D01*
X010855Y005379D01*
X010753Y005454D01*
X010646Y005522D01*
X013697Y005522D02*
X013590Y005454D01*
X013488Y005379D01*
X013392Y005296D01*
X013302Y005206D01*
X013220Y005109D01*
X013145Y005006D01*
X013078Y004898D01*
X013020Y004786D01*
X012970Y004669D01*
X012929Y004548D01*
X012898Y004425D01*
X012876Y004300D01*
X012863Y004174D01*
X012860Y004047D01*
X012867Y003920D01*
X012883Y003794D01*
X012909Y003670D01*
X012944Y003548D01*
X012989Y003429D01*
X013042Y003313D01*
X013104Y003202D01*
X013174Y003096D01*
X013252Y002996D01*
X013337Y002902D01*
X013429Y002815D01*
X013527Y002734D01*
X013632Y002662D01*
X013741Y002598D01*
X013855Y002542D01*
X013973Y002495D01*
X014095Y002457D01*
X014218Y002428D01*
X014344Y002409D01*
X014470Y002399D01*
X014598Y002399D01*
X014724Y002409D01*
X014850Y002428D01*
X014973Y002457D01*
X015095Y002495D01*
X015213Y002542D01*
X015327Y002598D01*
X015436Y002662D01*
X015541Y002734D01*
X015639Y002815D01*
X015731Y002902D01*
X015816Y002996D01*
X015894Y003096D01*
X015964Y003202D01*
X016026Y003313D01*
X016079Y003429D01*
X016124Y003548D01*
X016159Y003670D01*
X016185Y003794D01*
X016201Y003920D01*
X016208Y004047D01*
X016205Y004174D01*
X016192Y004300D01*
X016170Y004425D01*
X016139Y004548D01*
X016098Y004669D01*
X016048Y004786D01*
X015990Y004898D01*
X015923Y005006D01*
X015848Y005109D01*
X015766Y005206D01*
X015676Y005296D01*
X015580Y005379D01*
X015478Y005454D01*
X015371Y005522D01*
X018421Y005522D02*
X018314Y005454D01*
X018212Y005379D01*
X018116Y005296D01*
X018026Y005206D01*
X017944Y005109D01*
X017869Y005006D01*
X017802Y004898D01*
X017744Y004786D01*
X017694Y004669D01*
X017653Y004548D01*
X017622Y004425D01*
X017600Y004300D01*
X017587Y004174D01*
X017584Y004047D01*
X017591Y003920D01*
X017607Y003794D01*
X017633Y003670D01*
X017668Y003548D01*
X017713Y003429D01*
X017766Y003313D01*
X017828Y003202D01*
X017898Y003096D01*
X017976Y002996D01*
X018061Y002902D01*
X018153Y002815D01*
X018251Y002734D01*
X018356Y002662D01*
X018465Y002598D01*
X018579Y002542D01*
X018697Y002495D01*
X018819Y002457D01*
X018942Y002428D01*
X019068Y002409D01*
X019194Y002399D01*
X019322Y002399D01*
X019448Y002409D01*
X019574Y002428D01*
X019697Y002457D01*
X019819Y002495D01*
X019937Y002542D01*
X020051Y002598D01*
X020160Y002662D01*
X020265Y002734D01*
X020363Y002815D01*
X020455Y002902D01*
X020540Y002996D01*
X020618Y003096D01*
X020688Y003202D01*
X020750Y003313D01*
X020803Y003429D01*
X020848Y003548D01*
X020883Y003670D01*
X020909Y003794D01*
X020925Y003920D01*
X020932Y004047D01*
X020929Y004174D01*
X020916Y004300D01*
X020894Y004425D01*
X020863Y004548D01*
X020822Y004669D01*
X020772Y004786D01*
X020714Y004898D01*
X020647Y005006D01*
X020572Y005109D01*
X020490Y005206D01*
X020400Y005296D01*
X020304Y005379D01*
X020202Y005454D01*
X020095Y005522D01*
X023145Y005522D02*
X023038Y005454D01*
X022936Y005379D01*
X022840Y005296D01*
X022750Y005206D01*
X022668Y005109D01*
X022593Y005006D01*
X022526Y004898D01*
X022468Y004786D01*
X022418Y004669D01*
X022377Y004548D01*
X022346Y004425D01*
X022324Y004300D01*
X022311Y004174D01*
X022308Y004047D01*
X022315Y003920D01*
X022331Y003794D01*
X022357Y003670D01*
X022392Y003548D01*
X022437Y003429D01*
X022490Y003313D01*
X022552Y003202D01*
X022622Y003096D01*
X022700Y002996D01*
X022785Y002902D01*
X022877Y002815D01*
X022975Y002734D01*
X023080Y002662D01*
X023189Y002598D01*
X023303Y002542D01*
X023421Y002495D01*
X023543Y002457D01*
X023666Y002428D01*
X023792Y002409D01*
X023918Y002399D01*
X024046Y002399D01*
X024172Y002409D01*
X024298Y002428D01*
X024421Y002457D01*
X024543Y002495D01*
X024661Y002542D01*
X024775Y002598D01*
X024884Y002662D01*
X024989Y002734D01*
X025087Y002815D01*
X025179Y002902D01*
X025264Y002996D01*
X025342Y003096D01*
X025412Y003202D01*
X025474Y003313D01*
X025527Y003429D01*
X025572Y003548D01*
X025607Y003670D01*
X025633Y003794D01*
X025649Y003920D01*
X025656Y004047D01*
X025653Y004174D01*
X025640Y004300D01*
X025618Y004425D01*
X025587Y004548D01*
X025546Y004669D01*
X025496Y004786D01*
X025438Y004898D01*
X025371Y005006D01*
X025296Y005109D01*
X025214Y005206D01*
X025124Y005296D01*
X025028Y005379D01*
X024926Y005454D01*
X024819Y005522D01*
X027870Y005522D02*
X027763Y005454D01*
X027661Y005379D01*
X027565Y005296D01*
X027475Y005206D01*
X027393Y005109D01*
X027318Y005006D01*
X027251Y004898D01*
X027193Y004786D01*
X027143Y004669D01*
X027102Y004548D01*
X027071Y004425D01*
X027049Y004300D01*
X027036Y004174D01*
X027033Y004047D01*
X027040Y003920D01*
X027056Y003794D01*
X027082Y003670D01*
X027117Y003548D01*
X027162Y003429D01*
X027215Y003313D01*
X027277Y003202D01*
X027347Y003096D01*
X027425Y002996D01*
X027510Y002902D01*
X027602Y002815D01*
X027700Y002734D01*
X027805Y002662D01*
X027914Y002598D01*
X028028Y002542D01*
X028146Y002495D01*
X028268Y002457D01*
X028391Y002428D01*
X028517Y002409D01*
X028643Y002399D01*
X028771Y002399D01*
X028897Y002409D01*
X029023Y002428D01*
X029146Y002457D01*
X029268Y002495D01*
X029386Y002542D01*
X029500Y002598D01*
X029609Y002662D01*
X029714Y002734D01*
X029812Y002815D01*
X029904Y002902D01*
X029989Y002996D01*
X030067Y003096D01*
X030137Y003202D01*
X030199Y003313D01*
X030252Y003429D01*
X030297Y003548D01*
X030332Y003670D01*
X030358Y003794D01*
X030374Y003920D01*
X030381Y004047D01*
X030378Y004174D01*
X030365Y004300D01*
X030343Y004425D01*
X030312Y004548D01*
X030271Y004669D01*
X030221Y004786D01*
X030163Y004898D01*
X030096Y005006D01*
X030021Y005109D01*
X029939Y005206D01*
X029849Y005296D01*
X029753Y005379D01*
X029651Y005454D01*
X029544Y005522D01*
X032594Y005522D02*
X032487Y005454D01*
X032385Y005379D01*
X032289Y005296D01*
X032199Y005206D01*
X032117Y005109D01*
X032042Y005006D01*
X031975Y004898D01*
X031917Y004786D01*
X031867Y004669D01*
X031826Y004548D01*
X031795Y004425D01*
X031773Y004300D01*
X031760Y004174D01*
X031757Y004047D01*
X031764Y003920D01*
X031780Y003794D01*
X031806Y003670D01*
X031841Y003548D01*
X031886Y003429D01*
X031939Y003313D01*
X032001Y003202D01*
X032071Y003096D01*
X032149Y002996D01*
X032234Y002902D01*
X032326Y002815D01*
X032424Y002734D01*
X032529Y002662D01*
X032638Y002598D01*
X032752Y002542D01*
X032870Y002495D01*
X032992Y002457D01*
X033115Y002428D01*
X033241Y002409D01*
X033367Y002399D01*
X033495Y002399D01*
X033621Y002409D01*
X033747Y002428D01*
X033870Y002457D01*
X033992Y002495D01*
X034110Y002542D01*
X034224Y002598D01*
X034333Y002662D01*
X034438Y002734D01*
X034536Y002815D01*
X034628Y002902D01*
X034713Y002996D01*
X034791Y003096D01*
X034861Y003202D01*
X034923Y003313D01*
X034976Y003429D01*
X035021Y003548D01*
X035056Y003670D01*
X035082Y003794D01*
X035098Y003920D01*
X035105Y004047D01*
X035102Y004174D01*
X035089Y004300D01*
X035067Y004425D01*
X035036Y004548D01*
X034995Y004669D01*
X034945Y004786D01*
X034887Y004898D01*
X034820Y005006D01*
X034745Y005109D01*
X034663Y005206D01*
X034573Y005296D01*
X034477Y005379D01*
X034375Y005454D01*
X034268Y005522D01*
X037319Y005522D02*
X037212Y005454D01*
X037110Y005379D01*
X037014Y005296D01*
X036924Y005206D01*
X036842Y005109D01*
X036767Y005006D01*
X036700Y004898D01*
X036642Y004786D01*
X036592Y004669D01*
X036551Y004548D01*
X036520Y004425D01*
X036498Y004300D01*
X036485Y004174D01*
X036482Y004047D01*
X036489Y003920D01*
X036505Y003794D01*
X036531Y003670D01*
X036566Y003548D01*
X036611Y003429D01*
X036664Y003313D01*
X036726Y003202D01*
X036796Y003096D01*
X036874Y002996D01*
X036959Y002902D01*
X037051Y002815D01*
X037149Y002734D01*
X037254Y002662D01*
X037363Y002598D01*
X037477Y002542D01*
X037595Y002495D01*
X037717Y002457D01*
X037840Y002428D01*
X037966Y002409D01*
X038092Y002399D01*
X038220Y002399D01*
X038346Y002409D01*
X038472Y002428D01*
X038595Y002457D01*
X038717Y002495D01*
X038835Y002542D01*
X038949Y002598D01*
X039058Y002662D01*
X039163Y002734D01*
X039261Y002815D01*
X039353Y002902D01*
X039438Y002996D01*
X039516Y003096D01*
X039586Y003202D01*
X039648Y003313D01*
X039701Y003429D01*
X039746Y003548D01*
X039781Y003670D01*
X039807Y003794D01*
X039823Y003920D01*
X039830Y004047D01*
X039827Y004174D01*
X039814Y004300D01*
X039792Y004425D01*
X039761Y004548D01*
X039720Y004669D01*
X039670Y004786D01*
X039612Y004898D01*
X039545Y005006D01*
X039470Y005109D01*
X039388Y005206D01*
X039298Y005296D01*
X039202Y005379D01*
X039100Y005454D01*
X038993Y005522D01*
X042043Y005522D02*
X041936Y005454D01*
X041834Y005379D01*
X041738Y005296D01*
X041648Y005206D01*
X041566Y005109D01*
X041491Y005006D01*
X041424Y004898D01*
X041366Y004786D01*
X041316Y004669D01*
X041275Y004548D01*
X041244Y004425D01*
X041222Y004300D01*
X041209Y004174D01*
X041206Y004047D01*
X041213Y003920D01*
X041229Y003794D01*
X041255Y003670D01*
X041290Y003548D01*
X041335Y003429D01*
X041388Y003313D01*
X041450Y003202D01*
X041520Y003096D01*
X041598Y002996D01*
X041683Y002902D01*
X041775Y002815D01*
X041873Y002734D01*
X041978Y002662D01*
X042087Y002598D01*
X042201Y002542D01*
X042319Y002495D01*
X042441Y002457D01*
X042564Y002428D01*
X042690Y002409D01*
X042816Y002399D01*
X042944Y002399D01*
X043070Y002409D01*
X043196Y002428D01*
X043319Y002457D01*
X043441Y002495D01*
X043559Y002542D01*
X043673Y002598D01*
X043782Y002662D01*
X043887Y002734D01*
X043985Y002815D01*
X044077Y002902D01*
X044162Y002996D01*
X044240Y003096D01*
X044310Y003202D01*
X044372Y003313D01*
X044425Y003429D01*
X044470Y003548D01*
X044505Y003670D01*
X044531Y003794D01*
X044547Y003920D01*
X044554Y004047D01*
X044551Y004174D01*
X044538Y004300D01*
X044516Y004425D01*
X044485Y004548D01*
X044444Y004669D01*
X044394Y004786D01*
X044336Y004898D01*
X044269Y005006D01*
X044194Y005109D01*
X044112Y005206D01*
X044022Y005296D01*
X043926Y005379D01*
X043824Y005454D01*
X043717Y005522D01*
X046767Y005522D02*
X046660Y005454D01*
X046558Y005379D01*
X046462Y005296D01*
X046372Y005206D01*
X046290Y005109D01*
X046215Y005006D01*
X046148Y004898D01*
X046090Y004786D01*
X046040Y004669D01*
X045999Y004548D01*
X045968Y004425D01*
X045946Y004300D01*
X045933Y004174D01*
X045930Y004047D01*
X045937Y003920D01*
X045953Y003794D01*
X045979Y003670D01*
X046014Y003548D01*
X046059Y003429D01*
X046112Y003313D01*
X046174Y003202D01*
X046244Y003096D01*
X046322Y002996D01*
X046407Y002902D01*
X046499Y002815D01*
X046597Y002734D01*
X046702Y002662D01*
X046811Y002598D01*
X046925Y002542D01*
X047043Y002495D01*
X047165Y002457D01*
X047288Y002428D01*
X047414Y002409D01*
X047540Y002399D01*
X047668Y002399D01*
X047794Y002409D01*
X047920Y002428D01*
X048043Y002457D01*
X048165Y002495D01*
X048283Y002542D01*
X048397Y002598D01*
X048506Y002662D01*
X048611Y002734D01*
X048709Y002815D01*
X048801Y002902D01*
X048886Y002996D01*
X048964Y003096D01*
X049034Y003202D01*
X049096Y003313D01*
X049149Y003429D01*
X049194Y003548D01*
X049229Y003670D01*
X049255Y003794D01*
X049271Y003920D01*
X049278Y004047D01*
X049275Y004174D01*
X049262Y004300D01*
X049240Y004425D01*
X049209Y004548D01*
X049168Y004669D01*
X049118Y004786D01*
X049060Y004898D01*
X048993Y005006D01*
X048918Y005109D01*
X048836Y005206D01*
X048746Y005296D01*
X048650Y005379D01*
X048548Y005454D01*
X048441Y005522D01*
X048441Y010246D02*
X048548Y010178D01*
X048650Y010103D01*
X048746Y010020D01*
X048836Y009930D01*
X048918Y009833D01*
X048993Y009730D01*
X049060Y009622D01*
X049118Y009510D01*
X049168Y009393D01*
X049209Y009272D01*
X049240Y009149D01*
X049262Y009024D01*
X049275Y008898D01*
X049278Y008771D01*
X049271Y008644D01*
X049255Y008518D01*
X049229Y008394D01*
X049194Y008272D01*
X049149Y008153D01*
X049096Y008037D01*
X049034Y007926D01*
X048964Y007820D01*
X048886Y007720D01*
X048801Y007626D01*
X048709Y007539D01*
X048611Y007458D01*
X048506Y007386D01*
X048397Y007322D01*
X048283Y007266D01*
X048165Y007219D01*
X048043Y007181D01*
X047920Y007152D01*
X047794Y007133D01*
X047668Y007123D01*
X047540Y007123D01*
X047414Y007133D01*
X047288Y007152D01*
X047165Y007181D01*
X047043Y007219D01*
X046925Y007266D01*
X046811Y007322D01*
X046702Y007386D01*
X046597Y007458D01*
X046499Y007539D01*
X046407Y007626D01*
X046322Y007720D01*
X046244Y007820D01*
X046174Y007926D01*
X046112Y008037D01*
X046059Y008153D01*
X046014Y008272D01*
X045979Y008394D01*
X045953Y008518D01*
X045937Y008644D01*
X045930Y008771D01*
X045933Y008898D01*
X045946Y009024D01*
X045968Y009149D01*
X045999Y009272D01*
X046040Y009393D01*
X046090Y009510D01*
X046148Y009622D01*
X046215Y009730D01*
X046290Y009833D01*
X046372Y009930D01*
X046462Y010020D01*
X046558Y010103D01*
X046660Y010178D01*
X046767Y010246D01*
X043717Y010246D02*
X043824Y010178D01*
X043926Y010103D01*
X044022Y010020D01*
X044112Y009930D01*
X044194Y009833D01*
X044269Y009730D01*
X044336Y009622D01*
X044394Y009510D01*
X044444Y009393D01*
X044485Y009272D01*
X044516Y009149D01*
X044538Y009024D01*
X044551Y008898D01*
X044554Y008771D01*
X044547Y008644D01*
X044531Y008518D01*
X044505Y008394D01*
X044470Y008272D01*
X044425Y008153D01*
X044372Y008037D01*
X044310Y007926D01*
X044240Y007820D01*
X044162Y007720D01*
X044077Y007626D01*
X043985Y007539D01*
X043887Y007458D01*
X043782Y007386D01*
X043673Y007322D01*
X043559Y007266D01*
X043441Y007219D01*
X043319Y007181D01*
X043196Y007152D01*
X043070Y007133D01*
X042944Y007123D01*
X042816Y007123D01*
X042690Y007133D01*
X042564Y007152D01*
X042441Y007181D01*
X042319Y007219D01*
X042201Y007266D01*
X042087Y007322D01*
X041978Y007386D01*
X041873Y007458D01*
X041775Y007539D01*
X041683Y007626D01*
X041598Y007720D01*
X041520Y007820D01*
X041450Y007926D01*
X041388Y008037D01*
X041335Y008153D01*
X041290Y008272D01*
X041255Y008394D01*
X041229Y008518D01*
X041213Y008644D01*
X041206Y008771D01*
X041209Y008898D01*
X041222Y009024D01*
X041244Y009149D01*
X041275Y009272D01*
X041316Y009393D01*
X041366Y009510D01*
X041424Y009622D01*
X041491Y009730D01*
X041566Y009833D01*
X041648Y009930D01*
X041738Y010020D01*
X041834Y010103D01*
X041936Y010178D01*
X042043Y010246D01*
X038993Y010246D02*
X039100Y010178D01*
X039202Y010103D01*
X039298Y010020D01*
X039388Y009930D01*
X039470Y009833D01*
X039545Y009730D01*
X039612Y009622D01*
X039670Y009510D01*
X039720Y009393D01*
X039761Y009272D01*
X039792Y009149D01*
X039814Y009024D01*
X039827Y008898D01*
X039830Y008771D01*
X039823Y008644D01*
X039807Y008518D01*
X039781Y008394D01*
X039746Y008272D01*
X039701Y008153D01*
X039648Y008037D01*
X039586Y007926D01*
X039516Y007820D01*
X039438Y007720D01*
X039353Y007626D01*
X039261Y007539D01*
X039163Y007458D01*
X039058Y007386D01*
X038949Y007322D01*
X038835Y007266D01*
X038717Y007219D01*
X038595Y007181D01*
X038472Y007152D01*
X038346Y007133D01*
X038220Y007123D01*
X038092Y007123D01*
X037966Y007133D01*
X037840Y007152D01*
X037717Y007181D01*
X037595Y007219D01*
X037477Y007266D01*
X037363Y007322D01*
X037254Y007386D01*
X037149Y007458D01*
X037051Y007539D01*
X036959Y007626D01*
X036874Y007720D01*
X036796Y007820D01*
X036726Y007926D01*
X036664Y008037D01*
X036611Y008153D01*
X036566Y008272D01*
X036531Y008394D01*
X036505Y008518D01*
X036489Y008644D01*
X036482Y008771D01*
X036485Y008898D01*
X036498Y009024D01*
X036520Y009149D01*
X036551Y009272D01*
X036592Y009393D01*
X036642Y009510D01*
X036700Y009622D01*
X036767Y009730D01*
X036842Y009833D01*
X036924Y009930D01*
X037014Y010020D01*
X037110Y010103D01*
X037212Y010178D01*
X037319Y010246D01*
X034268Y010246D02*
X034375Y010178D01*
X034477Y010103D01*
X034573Y010020D01*
X034663Y009930D01*
X034745Y009833D01*
X034820Y009730D01*
X034887Y009622D01*
X034945Y009510D01*
X034995Y009393D01*
X035036Y009272D01*
X035067Y009149D01*
X035089Y009024D01*
X035102Y008898D01*
X035105Y008771D01*
X035098Y008644D01*
X035082Y008518D01*
X035056Y008394D01*
X035021Y008272D01*
X034976Y008153D01*
X034923Y008037D01*
X034861Y007926D01*
X034791Y007820D01*
X034713Y007720D01*
X034628Y007626D01*
X034536Y007539D01*
X034438Y007458D01*
X034333Y007386D01*
X034224Y007322D01*
X034110Y007266D01*
X033992Y007219D01*
X033870Y007181D01*
X033747Y007152D01*
X033621Y007133D01*
X033495Y007123D01*
X033367Y007123D01*
X033241Y007133D01*
X033115Y007152D01*
X032992Y007181D01*
X032870Y007219D01*
X032752Y007266D01*
X032638Y007322D01*
X032529Y007386D01*
X032424Y007458D01*
X032326Y007539D01*
X032234Y007626D01*
X032149Y007720D01*
X032071Y007820D01*
X032001Y007926D01*
X031939Y008037D01*
X031886Y008153D01*
X031841Y008272D01*
X031806Y008394D01*
X031780Y008518D01*
X031764Y008644D01*
X031757Y008771D01*
X031760Y008898D01*
X031773Y009024D01*
X031795Y009149D01*
X031826Y009272D01*
X031867Y009393D01*
X031917Y009510D01*
X031975Y009622D01*
X032042Y009730D01*
X032117Y009833D01*
X032199Y009930D01*
X032289Y010020D01*
X032385Y010103D01*
X032487Y010178D01*
X032594Y010246D01*
X029544Y010246D02*
X029651Y010178D01*
X029753Y010103D01*
X029849Y010020D01*
X029939Y009930D01*
X030021Y009833D01*
X030096Y009730D01*
X030163Y009622D01*
X030221Y009510D01*
X030271Y009393D01*
X030312Y009272D01*
X030343Y009149D01*
X030365Y009024D01*
X030378Y008898D01*
X030381Y008771D01*
X030374Y008644D01*
X030358Y008518D01*
X030332Y008394D01*
X030297Y008272D01*
X030252Y008153D01*
X030199Y008037D01*
X030137Y007926D01*
X030067Y007820D01*
X029989Y007720D01*
X029904Y007626D01*
X029812Y007539D01*
X029714Y007458D01*
X029609Y007386D01*
X029500Y007322D01*
X029386Y007266D01*
X029268Y007219D01*
X029146Y007181D01*
X029023Y007152D01*
X028897Y007133D01*
X028771Y007123D01*
X028643Y007123D01*
X028517Y007133D01*
X028391Y007152D01*
X028268Y007181D01*
X028146Y007219D01*
X028028Y007266D01*
X027914Y007322D01*
X027805Y007386D01*
X027700Y007458D01*
X027602Y007539D01*
X027510Y007626D01*
X027425Y007720D01*
X027347Y007820D01*
X027277Y007926D01*
X027215Y008037D01*
X027162Y008153D01*
X027117Y008272D01*
X027082Y008394D01*
X027056Y008518D01*
X027040Y008644D01*
X027033Y008771D01*
X027036Y008898D01*
X027049Y009024D01*
X027071Y009149D01*
X027102Y009272D01*
X027143Y009393D01*
X027193Y009510D01*
X027251Y009622D01*
X027318Y009730D01*
X027393Y009833D01*
X027475Y009930D01*
X027565Y010020D01*
X027661Y010103D01*
X027763Y010178D01*
X027870Y010246D01*
X024819Y010246D02*
X024926Y010178D01*
X025028Y010103D01*
X025124Y010020D01*
X025214Y009930D01*
X025296Y009833D01*
X025371Y009730D01*
X025438Y009622D01*
X025496Y009510D01*
X025546Y009393D01*
X025587Y009272D01*
X025618Y009149D01*
X025640Y009024D01*
X025653Y008898D01*
X025656Y008771D01*
X025649Y008644D01*
X025633Y008518D01*
X025607Y008394D01*
X025572Y008272D01*
X025527Y008153D01*
X025474Y008037D01*
X025412Y007926D01*
X025342Y007820D01*
X025264Y007720D01*
X025179Y007626D01*
X025087Y007539D01*
X024989Y007458D01*
X024884Y007386D01*
X024775Y007322D01*
X024661Y007266D01*
X024543Y007219D01*
X024421Y007181D01*
X024298Y007152D01*
X024172Y007133D01*
X024046Y007123D01*
X023918Y007123D01*
X023792Y007133D01*
X023666Y007152D01*
X023543Y007181D01*
X023421Y007219D01*
X023303Y007266D01*
X023189Y007322D01*
X023080Y007386D01*
X022975Y007458D01*
X022877Y007539D01*
X022785Y007626D01*
X022700Y007720D01*
X022622Y007820D01*
X022552Y007926D01*
X022490Y008037D01*
X022437Y008153D01*
X022392Y008272D01*
X022357Y008394D01*
X022331Y008518D01*
X022315Y008644D01*
X022308Y008771D01*
X022311Y008898D01*
X022324Y009024D01*
X022346Y009149D01*
X022377Y009272D01*
X022418Y009393D01*
X022468Y009510D01*
X022526Y009622D01*
X022593Y009730D01*
X022668Y009833D01*
X022750Y009930D01*
X022840Y010020D01*
X022936Y010103D01*
X023038Y010178D01*
X023145Y010246D01*
X020095Y010246D02*
X020202Y010178D01*
X020304Y010103D01*
X020400Y010020D01*
X020490Y009930D01*
X020572Y009833D01*
X020647Y009730D01*
X020714Y009622D01*
X020772Y009510D01*
X020822Y009393D01*
X020863Y009272D01*
X020894Y009149D01*
X020916Y009024D01*
X020929Y008898D01*
X020932Y008771D01*
X020925Y008644D01*
X020909Y008518D01*
X020883Y008394D01*
X020848Y008272D01*
X020803Y008153D01*
X020750Y008037D01*
X020688Y007926D01*
X020618Y007820D01*
X020540Y007720D01*
X020455Y007626D01*
X020363Y007539D01*
X020265Y007458D01*
X020160Y007386D01*
X020051Y007322D01*
X019937Y007266D01*
X019819Y007219D01*
X019697Y007181D01*
X019574Y007152D01*
X019448Y007133D01*
X019322Y007123D01*
X019194Y007123D01*
X019068Y007133D01*
X018942Y007152D01*
X018819Y007181D01*
X018697Y007219D01*
X018579Y007266D01*
X018465Y007322D01*
X018356Y007386D01*
X018251Y007458D01*
X018153Y007539D01*
X018061Y007626D01*
X017976Y007720D01*
X017898Y007820D01*
X017828Y007926D01*
X017766Y008037D01*
X017713Y008153D01*
X017668Y008272D01*
X017633Y008394D01*
X017607Y008518D01*
X017591Y008644D01*
X017584Y008771D01*
X017587Y008898D01*
X017600Y009024D01*
X017622Y009149D01*
X017653Y009272D01*
X017694Y009393D01*
X017744Y009510D01*
X017802Y009622D01*
X017869Y009730D01*
X017944Y009833D01*
X018026Y009930D01*
X018116Y010020D01*
X018212Y010103D01*
X018314Y010178D01*
X018421Y010246D01*
X015371Y010246D02*
X015478Y010178D01*
X015580Y010103D01*
X015676Y010020D01*
X015766Y009930D01*
X015848Y009833D01*
X015923Y009730D01*
X015990Y009622D01*
X016048Y009510D01*
X016098Y009393D01*
X016139Y009272D01*
X016170Y009149D01*
X016192Y009024D01*
X016205Y008898D01*
X016208Y008771D01*
X016201Y008644D01*
X016185Y008518D01*
X016159Y008394D01*
X016124Y008272D01*
X016079Y008153D01*
X016026Y008037D01*
X015964Y007926D01*
X015894Y007820D01*
X015816Y007720D01*
X015731Y007626D01*
X015639Y007539D01*
X015541Y007458D01*
X015436Y007386D01*
X015327Y007322D01*
X015213Y007266D01*
X015095Y007219D01*
X014973Y007181D01*
X014850Y007152D01*
X014724Y007133D01*
X014598Y007123D01*
X014470Y007123D01*
X014344Y007133D01*
X014218Y007152D01*
X014095Y007181D01*
X013973Y007219D01*
X013855Y007266D01*
X013741Y007322D01*
X013632Y007386D01*
X013527Y007458D01*
X013429Y007539D01*
X013337Y007626D01*
X013252Y007720D01*
X013174Y007820D01*
X013104Y007926D01*
X013042Y008037D01*
X012989Y008153D01*
X012944Y008272D01*
X012909Y008394D01*
X012883Y008518D01*
X012867Y008644D01*
X012860Y008771D01*
X012863Y008898D01*
X012876Y009024D01*
X012898Y009149D01*
X012929Y009272D01*
X012970Y009393D01*
X013020Y009510D01*
X013078Y009622D01*
X013145Y009730D01*
X013220Y009833D01*
X013302Y009930D01*
X013392Y010020D01*
X013488Y010103D01*
X013590Y010178D01*
X013697Y010246D01*
X010646Y010246D02*
X010753Y010178D01*
X010855Y010103D01*
X010951Y010020D01*
X011041Y009930D01*
X011123Y009833D01*
X011198Y009730D01*
X011265Y009622D01*
X011323Y009510D01*
X011373Y009393D01*
X011414Y009272D01*
X011445Y009149D01*
X011467Y009024D01*
X011480Y008898D01*
X011483Y008771D01*
X011476Y008644D01*
X011460Y008518D01*
X011434Y008394D01*
X011399Y008272D01*
X011354Y008153D01*
X011301Y008037D01*
X011239Y007926D01*
X011169Y007820D01*
X011091Y007720D01*
X011006Y007626D01*
X010914Y007539D01*
X010816Y007458D01*
X010711Y007386D01*
X010602Y007322D01*
X010488Y007266D01*
X010370Y007219D01*
X010248Y007181D01*
X010125Y007152D01*
X009999Y007133D01*
X009873Y007123D01*
X009745Y007123D01*
X009619Y007133D01*
X009493Y007152D01*
X009370Y007181D01*
X009248Y007219D01*
X009130Y007266D01*
X009016Y007322D01*
X008907Y007386D01*
X008802Y007458D01*
X008704Y007539D01*
X008612Y007626D01*
X008527Y007720D01*
X008449Y007820D01*
X008379Y007926D01*
X008317Y008037D01*
X008264Y008153D01*
X008219Y008272D01*
X008184Y008394D01*
X008158Y008518D01*
X008142Y008644D01*
X008135Y008771D01*
X008138Y008898D01*
X008151Y009024D01*
X008173Y009149D01*
X008204Y009272D01*
X008245Y009393D01*
X008295Y009510D01*
X008353Y009622D01*
X008420Y009730D01*
X008495Y009833D01*
X008577Y009930D01*
X008667Y010020D01*
X008763Y010103D01*
X008865Y010178D01*
X008972Y010246D01*
X005922Y010246D02*
X006029Y010178D01*
X006131Y010103D01*
X006227Y010020D01*
X006317Y009930D01*
X006399Y009833D01*
X006474Y009730D01*
X006541Y009622D01*
X006599Y009510D01*
X006649Y009393D01*
X006690Y009272D01*
X006721Y009149D01*
X006743Y009024D01*
X006756Y008898D01*
X006759Y008771D01*
X006752Y008644D01*
X006736Y008518D01*
X006710Y008394D01*
X006675Y008272D01*
X006630Y008153D01*
X006577Y008037D01*
X006515Y007926D01*
X006445Y007820D01*
X006367Y007720D01*
X006282Y007626D01*
X006190Y007539D01*
X006092Y007458D01*
X005987Y007386D01*
X005878Y007322D01*
X005764Y007266D01*
X005646Y007219D01*
X005524Y007181D01*
X005401Y007152D01*
X005275Y007133D01*
X005149Y007123D01*
X005021Y007123D01*
X004895Y007133D01*
X004769Y007152D01*
X004646Y007181D01*
X004524Y007219D01*
X004406Y007266D01*
X004292Y007322D01*
X004183Y007386D01*
X004078Y007458D01*
X003980Y007539D01*
X003888Y007626D01*
X003803Y007720D01*
X003725Y007820D01*
X003655Y007926D01*
X003593Y008037D01*
X003540Y008153D01*
X003495Y008272D01*
X003460Y008394D01*
X003434Y008518D01*
X003418Y008644D01*
X003411Y008771D01*
X003414Y008898D01*
X003427Y009024D01*
X003449Y009149D01*
X003480Y009272D01*
X003521Y009393D01*
X003571Y009510D01*
X003629Y009622D01*
X003696Y009730D01*
X003771Y009833D01*
X003853Y009930D01*
X003943Y010020D01*
X004039Y010103D01*
X004141Y010178D01*
X004248Y010246D01*
X004248Y014970D02*
X004141Y014902D01*
X004039Y014827D01*
X003943Y014744D01*
X003853Y014654D01*
X003771Y014557D01*
X003696Y014454D01*
X003629Y014346D01*
X003571Y014234D01*
X003521Y014117D01*
X003480Y013996D01*
X003449Y013873D01*
X003427Y013748D01*
X003414Y013622D01*
X003411Y013495D01*
X003418Y013368D01*
X003434Y013242D01*
X003460Y013118D01*
X003495Y012996D01*
X003540Y012877D01*
X003593Y012761D01*
X003655Y012650D01*
X003725Y012544D01*
X003803Y012444D01*
X003888Y012350D01*
X003980Y012263D01*
X004078Y012182D01*
X004183Y012110D01*
X004292Y012046D01*
X004406Y011990D01*
X004524Y011943D01*
X004646Y011905D01*
X004769Y011876D01*
X004895Y011857D01*
X005021Y011847D01*
X005149Y011847D01*
X005275Y011857D01*
X005401Y011876D01*
X005524Y011905D01*
X005646Y011943D01*
X005764Y011990D01*
X005878Y012046D01*
X005987Y012110D01*
X006092Y012182D01*
X006190Y012263D01*
X006282Y012350D01*
X006367Y012444D01*
X006445Y012544D01*
X006515Y012650D01*
X006577Y012761D01*
X006630Y012877D01*
X006675Y012996D01*
X006710Y013118D01*
X006736Y013242D01*
X006752Y013368D01*
X006759Y013495D01*
X006756Y013622D01*
X006743Y013748D01*
X006721Y013873D01*
X006690Y013996D01*
X006649Y014117D01*
X006599Y014234D01*
X006541Y014346D01*
X006474Y014454D01*
X006399Y014557D01*
X006317Y014654D01*
X006227Y014744D01*
X006131Y014827D01*
X006029Y014902D01*
X005922Y014970D01*
X008972Y014970D02*
X008865Y014902D01*
X008763Y014827D01*
X008667Y014744D01*
X008577Y014654D01*
X008495Y014557D01*
X008420Y014454D01*
X008353Y014346D01*
X008295Y014234D01*
X008245Y014117D01*
X008204Y013996D01*
X008173Y013873D01*
X008151Y013748D01*
X008138Y013622D01*
X008135Y013495D01*
X008142Y013368D01*
X008158Y013242D01*
X008184Y013118D01*
X008219Y012996D01*
X008264Y012877D01*
X008317Y012761D01*
X008379Y012650D01*
X008449Y012544D01*
X008527Y012444D01*
X008612Y012350D01*
X008704Y012263D01*
X008802Y012182D01*
X008907Y012110D01*
X009016Y012046D01*
X009130Y011990D01*
X009248Y011943D01*
X009370Y011905D01*
X009493Y011876D01*
X009619Y011857D01*
X009745Y011847D01*
X009873Y011847D01*
X009999Y011857D01*
X010125Y011876D01*
X010248Y011905D01*
X010370Y011943D01*
X010488Y011990D01*
X010602Y012046D01*
X010711Y012110D01*
X010816Y012182D01*
X010914Y012263D01*
X011006Y012350D01*
X011091Y012444D01*
X011169Y012544D01*
X011239Y012650D01*
X011301Y012761D01*
X011354Y012877D01*
X011399Y012996D01*
X011434Y013118D01*
X011460Y013242D01*
X011476Y013368D01*
X011483Y013495D01*
X011480Y013622D01*
X011467Y013748D01*
X011445Y013873D01*
X011414Y013996D01*
X011373Y014117D01*
X011323Y014234D01*
X011265Y014346D01*
X011198Y014454D01*
X011123Y014557D01*
X011041Y014654D01*
X010951Y014744D01*
X010855Y014827D01*
X010753Y014902D01*
X010646Y014970D01*
X013697Y014970D02*
X013590Y014902D01*
X013488Y014827D01*
X013392Y014744D01*
X013302Y014654D01*
X013220Y014557D01*
X013145Y014454D01*
X013078Y014346D01*
X013020Y014234D01*
X012970Y014117D01*
X012929Y013996D01*
X012898Y013873D01*
X012876Y013748D01*
X012863Y013622D01*
X012860Y013495D01*
X012867Y013368D01*
X012883Y013242D01*
X012909Y013118D01*
X012944Y012996D01*
X012989Y012877D01*
X013042Y012761D01*
X013104Y012650D01*
X013174Y012544D01*
X013252Y012444D01*
X013337Y012350D01*
X013429Y012263D01*
X013527Y012182D01*
X013632Y012110D01*
X013741Y012046D01*
X013855Y011990D01*
X013973Y011943D01*
X014095Y011905D01*
X014218Y011876D01*
X014344Y011857D01*
X014470Y011847D01*
X014598Y011847D01*
X014724Y011857D01*
X014850Y011876D01*
X014973Y011905D01*
X015095Y011943D01*
X015213Y011990D01*
X015327Y012046D01*
X015436Y012110D01*
X015541Y012182D01*
X015639Y012263D01*
X015731Y012350D01*
X015816Y012444D01*
X015894Y012544D01*
X015964Y012650D01*
X016026Y012761D01*
X016079Y012877D01*
X016124Y012996D01*
X016159Y013118D01*
X016185Y013242D01*
X016201Y013368D01*
X016208Y013495D01*
X016205Y013622D01*
X016192Y013748D01*
X016170Y013873D01*
X016139Y013996D01*
X016098Y014117D01*
X016048Y014234D01*
X015990Y014346D01*
X015923Y014454D01*
X015848Y014557D01*
X015766Y014654D01*
X015676Y014744D01*
X015580Y014827D01*
X015478Y014902D01*
X015371Y014970D01*
X018421Y014970D02*
X018314Y014902D01*
X018212Y014827D01*
X018116Y014744D01*
X018026Y014654D01*
X017944Y014557D01*
X017869Y014454D01*
X017802Y014346D01*
X017744Y014234D01*
X017694Y014117D01*
X017653Y013996D01*
X017622Y013873D01*
X017600Y013748D01*
X017587Y013622D01*
X017584Y013495D01*
X017591Y013368D01*
X017607Y013242D01*
X017633Y013118D01*
X017668Y012996D01*
X017713Y012877D01*
X017766Y012761D01*
X017828Y012650D01*
X017898Y012544D01*
X017976Y012444D01*
X018061Y012350D01*
X018153Y012263D01*
X018251Y012182D01*
X018356Y012110D01*
X018465Y012046D01*
X018579Y011990D01*
X018697Y011943D01*
X018819Y011905D01*
X018942Y011876D01*
X019068Y011857D01*
X019194Y011847D01*
X019322Y011847D01*
X019448Y011857D01*
X019574Y011876D01*
X019697Y011905D01*
X019819Y011943D01*
X019937Y011990D01*
X020051Y012046D01*
X020160Y012110D01*
X020265Y012182D01*
X020363Y012263D01*
X020455Y012350D01*
X020540Y012444D01*
X020618Y012544D01*
X020688Y012650D01*
X020750Y012761D01*
X020803Y012877D01*
X020848Y012996D01*
X020883Y013118D01*
X020909Y013242D01*
X020925Y013368D01*
X020932Y013495D01*
X020929Y013622D01*
X020916Y013748D01*
X020894Y013873D01*
X020863Y013996D01*
X020822Y014117D01*
X020772Y014234D01*
X020714Y014346D01*
X020647Y014454D01*
X020572Y014557D01*
X020490Y014654D01*
X020400Y014744D01*
X020304Y014827D01*
X020202Y014902D01*
X020095Y014970D01*
X023145Y014970D02*
X023038Y014902D01*
X022936Y014827D01*
X022840Y014744D01*
X022750Y014654D01*
X022668Y014557D01*
X022593Y014454D01*
X022526Y014346D01*
X022468Y014234D01*
X022418Y014117D01*
X022377Y013996D01*
X022346Y013873D01*
X022324Y013748D01*
X022311Y013622D01*
X022308Y013495D01*
X022315Y013368D01*
X022331Y013242D01*
X022357Y013118D01*
X022392Y012996D01*
X022437Y012877D01*
X022490Y012761D01*
X022552Y012650D01*
X022622Y012544D01*
X022700Y012444D01*
X022785Y012350D01*
X022877Y012263D01*
X022975Y012182D01*
X023080Y012110D01*
X023189Y012046D01*
X023303Y011990D01*
X023421Y011943D01*
X023543Y011905D01*
X023666Y011876D01*
X023792Y011857D01*
X023918Y011847D01*
X024046Y011847D01*
X024172Y011857D01*
X024298Y011876D01*
X024421Y011905D01*
X024543Y011943D01*
X024661Y011990D01*
X024775Y012046D01*
X024884Y012110D01*
X024989Y012182D01*
X025087Y012263D01*
X025179Y012350D01*
X025264Y012444D01*
X025342Y012544D01*
X025412Y012650D01*
X025474Y012761D01*
X025527Y012877D01*
X025572Y012996D01*
X025607Y013118D01*
X025633Y013242D01*
X025649Y013368D01*
X025656Y013495D01*
X025653Y013622D01*
X025640Y013748D01*
X025618Y013873D01*
X025587Y013996D01*
X025546Y014117D01*
X025496Y014234D01*
X025438Y014346D01*
X025371Y014454D01*
X025296Y014557D01*
X025214Y014654D01*
X025124Y014744D01*
X025028Y014827D01*
X024926Y014902D01*
X024819Y014970D01*
X027870Y014970D02*
X027763Y014902D01*
X027661Y014827D01*
X027565Y014744D01*
X027475Y014654D01*
X027393Y014557D01*
X027318Y014454D01*
X027251Y014346D01*
X027193Y014234D01*
X027143Y014117D01*
X027102Y013996D01*
X027071Y013873D01*
X027049Y013748D01*
X027036Y013622D01*
X027033Y013495D01*
X027040Y013368D01*
X027056Y013242D01*
X027082Y013118D01*
X027117Y012996D01*
X027162Y012877D01*
X027215Y012761D01*
X027277Y012650D01*
X027347Y012544D01*
X027425Y012444D01*
X027510Y012350D01*
X027602Y012263D01*
X027700Y012182D01*
X027805Y012110D01*
X027914Y012046D01*
X028028Y011990D01*
X028146Y011943D01*
X028268Y011905D01*
X028391Y011876D01*
X028517Y011857D01*
X028643Y011847D01*
X028771Y011847D01*
X028897Y011857D01*
X029023Y011876D01*
X029146Y011905D01*
X029268Y011943D01*
X029386Y011990D01*
X029500Y012046D01*
X029609Y012110D01*
X029714Y012182D01*
X029812Y012263D01*
X029904Y012350D01*
X029989Y012444D01*
X030067Y012544D01*
X030137Y012650D01*
X030199Y012761D01*
X030252Y012877D01*
X030297Y012996D01*
X030332Y013118D01*
X030358Y013242D01*
X030374Y013368D01*
X030381Y013495D01*
X030378Y013622D01*
X030365Y013748D01*
X030343Y013873D01*
X030312Y013996D01*
X030271Y014117D01*
X030221Y014234D01*
X030163Y014346D01*
X030096Y014454D01*
X030021Y014557D01*
X029939Y014654D01*
X029849Y014744D01*
X029753Y014827D01*
X029651Y014902D01*
X029544Y014970D01*
X032594Y014970D02*
X032487Y014902D01*
X032385Y014827D01*
X032289Y014744D01*
X032199Y014654D01*
X032117Y014557D01*
X032042Y014454D01*
X031975Y014346D01*
X031917Y014234D01*
X031867Y014117D01*
X031826Y013996D01*
X031795Y013873D01*
X031773Y013748D01*
X031760Y013622D01*
X031757Y013495D01*
X031764Y013368D01*
X031780Y013242D01*
X031806Y013118D01*
X031841Y012996D01*
X031886Y012877D01*
X031939Y012761D01*
X032001Y012650D01*
X032071Y012544D01*
X032149Y012444D01*
X032234Y012350D01*
X032326Y012263D01*
X032424Y012182D01*
X032529Y012110D01*
X032638Y012046D01*
X032752Y011990D01*
X032870Y011943D01*
X032992Y011905D01*
X033115Y011876D01*
X033241Y011857D01*
X033367Y011847D01*
X033495Y011847D01*
X033621Y011857D01*
X033747Y011876D01*
X033870Y011905D01*
X033992Y011943D01*
X034110Y011990D01*
X034224Y012046D01*
X034333Y012110D01*
X034438Y012182D01*
X034536Y012263D01*
X034628Y012350D01*
X034713Y012444D01*
X034791Y012544D01*
X034861Y012650D01*
X034923Y012761D01*
X034976Y012877D01*
X035021Y012996D01*
X035056Y013118D01*
X035082Y013242D01*
X035098Y013368D01*
X035105Y013495D01*
X035102Y013622D01*
X035089Y013748D01*
X035067Y013873D01*
X035036Y013996D01*
X034995Y014117D01*
X034945Y014234D01*
X034887Y014346D01*
X034820Y014454D01*
X034745Y014557D01*
X034663Y014654D01*
X034573Y014744D01*
X034477Y014827D01*
X034375Y014902D01*
X034268Y014970D01*
X037319Y014970D02*
X037212Y014902D01*
X037110Y014827D01*
X037014Y014744D01*
X036924Y014654D01*
X036842Y014557D01*
X036767Y014454D01*
X036700Y014346D01*
X036642Y014234D01*
X036592Y014117D01*
X036551Y013996D01*
X036520Y013873D01*
X036498Y013748D01*
X036485Y013622D01*
X036482Y013495D01*
X036489Y013368D01*
X036505Y013242D01*
X036531Y013118D01*
X036566Y012996D01*
X036611Y012877D01*
X036664Y012761D01*
X036726Y012650D01*
X036796Y012544D01*
X036874Y012444D01*
X036959Y012350D01*
X037051Y012263D01*
X037149Y012182D01*
X037254Y012110D01*
X037363Y012046D01*
X037477Y011990D01*
X037595Y011943D01*
X037717Y011905D01*
X037840Y011876D01*
X037966Y011857D01*
X038092Y011847D01*
X038220Y011847D01*
X038346Y011857D01*
X038472Y011876D01*
X038595Y011905D01*
X038717Y011943D01*
X038835Y011990D01*
X038949Y012046D01*
X039058Y012110D01*
X039163Y012182D01*
X039261Y012263D01*
X039353Y012350D01*
X039438Y012444D01*
X039516Y012544D01*
X039586Y012650D01*
X039648Y012761D01*
X039701Y012877D01*
X039746Y012996D01*
X039781Y013118D01*
X039807Y013242D01*
X039823Y013368D01*
X039830Y013495D01*
X039827Y013622D01*
X039814Y013748D01*
X039792Y013873D01*
X039761Y013996D01*
X039720Y014117D01*
X039670Y014234D01*
X039612Y014346D01*
X039545Y014454D01*
X039470Y014557D01*
X039388Y014654D01*
X039298Y014744D01*
X039202Y014827D01*
X039100Y014902D01*
X038993Y014970D01*
X042043Y014970D02*
X041936Y014902D01*
X041834Y014827D01*
X041738Y014744D01*
X041648Y014654D01*
X041566Y014557D01*
X041491Y014454D01*
X041424Y014346D01*
X041366Y014234D01*
X041316Y014117D01*
X041275Y013996D01*
X041244Y013873D01*
X041222Y013748D01*
X041209Y013622D01*
X041206Y013495D01*
X041213Y013368D01*
X041229Y013242D01*
X041255Y013118D01*
X041290Y012996D01*
X041335Y012877D01*
X041388Y012761D01*
X041450Y012650D01*
X041520Y012544D01*
X041598Y012444D01*
X041683Y012350D01*
X041775Y012263D01*
X041873Y012182D01*
X041978Y012110D01*
X042087Y012046D01*
X042201Y011990D01*
X042319Y011943D01*
X042441Y011905D01*
X042564Y011876D01*
X042690Y011857D01*
X042816Y011847D01*
X042944Y011847D01*
X043070Y011857D01*
X043196Y011876D01*
X043319Y011905D01*
X043441Y011943D01*
X043559Y011990D01*
X043673Y012046D01*
X043782Y012110D01*
X043887Y012182D01*
X043985Y012263D01*
X044077Y012350D01*
X044162Y012444D01*
X044240Y012544D01*
X044310Y012650D01*
X044372Y012761D01*
X044425Y012877D01*
X044470Y012996D01*
X044505Y013118D01*
X044531Y013242D01*
X044547Y013368D01*
X044554Y013495D01*
X044551Y013622D01*
X044538Y013748D01*
X044516Y013873D01*
X044485Y013996D01*
X044444Y014117D01*
X044394Y014234D01*
X044336Y014346D01*
X044269Y014454D01*
X044194Y014557D01*
X044112Y014654D01*
X044022Y014744D01*
X043926Y014827D01*
X043824Y014902D01*
X043717Y014970D01*
X046767Y014970D02*
X046660Y014902D01*
X046558Y014827D01*
X046462Y014744D01*
X046372Y014654D01*
X046290Y014557D01*
X046215Y014454D01*
X046148Y014346D01*
X046090Y014234D01*
X046040Y014117D01*
X045999Y013996D01*
X045968Y013873D01*
X045946Y013748D01*
X045933Y013622D01*
X045930Y013495D01*
X045937Y013368D01*
X045953Y013242D01*
X045979Y013118D01*
X046014Y012996D01*
X046059Y012877D01*
X046112Y012761D01*
X046174Y012650D01*
X046244Y012544D01*
X046322Y012444D01*
X046407Y012350D01*
X046499Y012263D01*
X046597Y012182D01*
X046702Y012110D01*
X046811Y012046D01*
X046925Y011990D01*
X047043Y011943D01*
X047165Y011905D01*
X047288Y011876D01*
X047414Y011857D01*
X047540Y011847D01*
X047668Y011847D01*
X047794Y011857D01*
X047920Y011876D01*
X048043Y011905D01*
X048165Y011943D01*
X048283Y011990D01*
X048397Y012046D01*
X048506Y012110D01*
X048611Y012182D01*
X048709Y012263D01*
X048801Y012350D01*
X048886Y012444D01*
X048964Y012544D01*
X049034Y012650D01*
X049096Y012761D01*
X049149Y012877D01*
X049194Y012996D01*
X049229Y013118D01*
X049255Y013242D01*
X049271Y013368D01*
X049278Y013495D01*
X049275Y013622D01*
X049262Y013748D01*
X049240Y013873D01*
X049209Y013996D01*
X049168Y014117D01*
X049118Y014234D01*
X049060Y014346D01*
X048993Y014454D01*
X048918Y014557D01*
X048836Y014654D01*
X048746Y014744D01*
X048650Y014827D01*
X048548Y014902D01*
X048441Y014970D01*
X048441Y019695D02*
X048548Y019627D01*
X048650Y019552D01*
X048746Y019469D01*
X048836Y019379D01*
X048918Y019282D01*
X048993Y019179D01*
X049060Y019071D01*
X049118Y018959D01*
X049168Y018842D01*
X049209Y018721D01*
X049240Y018598D01*
X049262Y018473D01*
X049275Y018347D01*
X049278Y018220D01*
X049271Y018093D01*
X049255Y017967D01*
X049229Y017843D01*
X049194Y017721D01*
X049149Y017602D01*
X049096Y017486D01*
X049034Y017375D01*
X048964Y017269D01*
X048886Y017169D01*
X048801Y017075D01*
X048709Y016988D01*
X048611Y016907D01*
X048506Y016835D01*
X048397Y016771D01*
X048283Y016715D01*
X048165Y016668D01*
X048043Y016630D01*
X047920Y016601D01*
X047794Y016582D01*
X047668Y016572D01*
X047540Y016572D01*
X047414Y016582D01*
X047288Y016601D01*
X047165Y016630D01*
X047043Y016668D01*
X046925Y016715D01*
X046811Y016771D01*
X046702Y016835D01*
X046597Y016907D01*
X046499Y016988D01*
X046407Y017075D01*
X046322Y017169D01*
X046244Y017269D01*
X046174Y017375D01*
X046112Y017486D01*
X046059Y017602D01*
X046014Y017721D01*
X045979Y017843D01*
X045953Y017967D01*
X045937Y018093D01*
X045930Y018220D01*
X045933Y018347D01*
X045946Y018473D01*
X045968Y018598D01*
X045999Y018721D01*
X046040Y018842D01*
X046090Y018959D01*
X046148Y019071D01*
X046215Y019179D01*
X046290Y019282D01*
X046372Y019379D01*
X046462Y019469D01*
X046558Y019552D01*
X046660Y019627D01*
X046767Y019695D01*
X043717Y019695D02*
X043824Y019627D01*
X043926Y019552D01*
X044022Y019469D01*
X044112Y019379D01*
X044194Y019282D01*
X044269Y019179D01*
X044336Y019071D01*
X044394Y018959D01*
X044444Y018842D01*
X044485Y018721D01*
X044516Y018598D01*
X044538Y018473D01*
X044551Y018347D01*
X044554Y018220D01*
X044547Y018093D01*
X044531Y017967D01*
X044505Y017843D01*
X044470Y017721D01*
X044425Y017602D01*
X044372Y017486D01*
X044310Y017375D01*
X044240Y017269D01*
X044162Y017169D01*
X044077Y017075D01*
X043985Y016988D01*
X043887Y016907D01*
X043782Y016835D01*
X043673Y016771D01*
X043559Y016715D01*
X043441Y016668D01*
X043319Y016630D01*
X043196Y016601D01*
X043070Y016582D01*
X042944Y016572D01*
X042816Y016572D01*
X042690Y016582D01*
X042564Y016601D01*
X042441Y016630D01*
X042319Y016668D01*
X042201Y016715D01*
X042087Y016771D01*
X041978Y016835D01*
X041873Y016907D01*
X041775Y016988D01*
X041683Y017075D01*
X041598Y017169D01*
X041520Y017269D01*
X041450Y017375D01*
X041388Y017486D01*
X041335Y017602D01*
X041290Y017721D01*
X041255Y017843D01*
X041229Y017967D01*
X041213Y018093D01*
X041206Y018220D01*
X041209Y018347D01*
X041222Y018473D01*
X041244Y018598D01*
X041275Y018721D01*
X041316Y018842D01*
X041366Y018959D01*
X041424Y019071D01*
X041491Y019179D01*
X041566Y019282D01*
X041648Y019379D01*
X041738Y019469D01*
X041834Y019552D01*
X041936Y019627D01*
X042043Y019695D01*
X038993Y019695D02*
X039100Y019627D01*
X039202Y019552D01*
X039298Y019469D01*
X039388Y019379D01*
X039470Y019282D01*
X039545Y019179D01*
X039612Y019071D01*
X039670Y018959D01*
X039720Y018842D01*
X039761Y018721D01*
X039792Y018598D01*
X039814Y018473D01*
X039827Y018347D01*
X039830Y018220D01*
X039823Y018093D01*
X039807Y017967D01*
X039781Y017843D01*
X039746Y017721D01*
X039701Y017602D01*
X039648Y017486D01*
X039586Y017375D01*
X039516Y017269D01*
X039438Y017169D01*
X039353Y017075D01*
X039261Y016988D01*
X039163Y016907D01*
X039058Y016835D01*
X038949Y016771D01*
X038835Y016715D01*
X038717Y016668D01*
X038595Y016630D01*
X038472Y016601D01*
X038346Y016582D01*
X038220Y016572D01*
X038092Y016572D01*
X037966Y016582D01*
X037840Y016601D01*
X037717Y016630D01*
X037595Y016668D01*
X037477Y016715D01*
X037363Y016771D01*
X037254Y016835D01*
X037149Y016907D01*
X037051Y016988D01*
X036959Y017075D01*
X036874Y017169D01*
X036796Y017269D01*
X036726Y017375D01*
X036664Y017486D01*
X036611Y017602D01*
X036566Y017721D01*
X036531Y017843D01*
X036505Y017967D01*
X036489Y018093D01*
X036482Y018220D01*
X036485Y018347D01*
X036498Y018473D01*
X036520Y018598D01*
X036551Y018721D01*
X036592Y018842D01*
X036642Y018959D01*
X036700Y019071D01*
X036767Y019179D01*
X036842Y019282D01*
X036924Y019379D01*
X037014Y019469D01*
X037110Y019552D01*
X037212Y019627D01*
X037319Y019695D01*
X034268Y019695D02*
X034375Y019627D01*
X034477Y019552D01*
X034573Y019469D01*
X034663Y019379D01*
X034745Y019282D01*
X034820Y019179D01*
X034887Y019071D01*
X034945Y018959D01*
X034995Y018842D01*
X035036Y018721D01*
X035067Y018598D01*
X035089Y018473D01*
X035102Y018347D01*
X035105Y018220D01*
X035098Y018093D01*
X035082Y017967D01*
X035056Y017843D01*
X035021Y017721D01*
X034976Y017602D01*
X034923Y017486D01*
X034861Y017375D01*
X034791Y017269D01*
X034713Y017169D01*
X034628Y017075D01*
X034536Y016988D01*
X034438Y016907D01*
X034333Y016835D01*
X034224Y016771D01*
X034110Y016715D01*
X033992Y016668D01*
X033870Y016630D01*
X033747Y016601D01*
X033621Y016582D01*
X033495Y016572D01*
X033367Y016572D01*
X033241Y016582D01*
X033115Y016601D01*
X032992Y016630D01*
X032870Y016668D01*
X032752Y016715D01*
X032638Y016771D01*
X032529Y016835D01*
X032424Y016907D01*
X032326Y016988D01*
X032234Y017075D01*
X032149Y017169D01*
X032071Y017269D01*
X032001Y017375D01*
X031939Y017486D01*
X031886Y017602D01*
X031841Y017721D01*
X031806Y017843D01*
X031780Y017967D01*
X031764Y018093D01*
X031757Y018220D01*
X031760Y018347D01*
X031773Y018473D01*
X031795Y018598D01*
X031826Y018721D01*
X031867Y018842D01*
X031917Y018959D01*
X031975Y019071D01*
X032042Y019179D01*
X032117Y019282D01*
X032199Y019379D01*
X032289Y019469D01*
X032385Y019552D01*
X032487Y019627D01*
X032594Y019695D01*
X029544Y019695D02*
X029651Y019627D01*
X029753Y019552D01*
X029849Y019469D01*
X029939Y019379D01*
X030021Y019282D01*
X030096Y019179D01*
X030163Y019071D01*
X030221Y018959D01*
X030271Y018842D01*
X030312Y018721D01*
X030343Y018598D01*
X030365Y018473D01*
X030378Y018347D01*
X030381Y018220D01*
X030374Y018093D01*
X030358Y017967D01*
X030332Y017843D01*
X030297Y017721D01*
X030252Y017602D01*
X030199Y017486D01*
X030137Y017375D01*
X030067Y017269D01*
X029989Y017169D01*
X029904Y017075D01*
X029812Y016988D01*
X029714Y016907D01*
X029609Y016835D01*
X029500Y016771D01*
X029386Y016715D01*
X029268Y016668D01*
X029146Y016630D01*
X029023Y016601D01*
X028897Y016582D01*
X028771Y016572D01*
X028643Y016572D01*
X028517Y016582D01*
X028391Y016601D01*
X028268Y016630D01*
X028146Y016668D01*
X028028Y016715D01*
X027914Y016771D01*
X027805Y016835D01*
X027700Y016907D01*
X027602Y016988D01*
X027510Y017075D01*
X027425Y017169D01*
X027347Y017269D01*
X027277Y017375D01*
X027215Y017486D01*
X027162Y017602D01*
X027117Y017721D01*
X027082Y017843D01*
X027056Y017967D01*
X027040Y018093D01*
X027033Y018220D01*
X027036Y018347D01*
X027049Y018473D01*
X027071Y018598D01*
X027102Y018721D01*
X027143Y018842D01*
X027193Y018959D01*
X027251Y019071D01*
X027318Y019179D01*
X027393Y019282D01*
X027475Y019379D01*
X027565Y019469D01*
X027661Y019552D01*
X027763Y019627D01*
X027870Y019695D01*
X024819Y019695D02*
X024926Y019627D01*
X025028Y019552D01*
X025124Y019469D01*
X025214Y019379D01*
X025296Y019282D01*
X025371Y019179D01*
X025438Y019071D01*
X025496Y018959D01*
X025546Y018842D01*
X025587Y018721D01*
X025618Y018598D01*
X025640Y018473D01*
X025653Y018347D01*
X025656Y018220D01*
X025649Y018093D01*
X025633Y017967D01*
X025607Y017843D01*
X025572Y017721D01*
X025527Y017602D01*
X025474Y017486D01*
X025412Y017375D01*
X025342Y017269D01*
X025264Y017169D01*
X025179Y017075D01*
X025087Y016988D01*
X024989Y016907D01*
X024884Y016835D01*
X024775Y016771D01*
X024661Y016715D01*
X024543Y016668D01*
X024421Y016630D01*
X024298Y016601D01*
X024172Y016582D01*
X024046Y016572D01*
X023918Y016572D01*
X023792Y016582D01*
X023666Y016601D01*
X023543Y016630D01*
X023421Y016668D01*
X023303Y016715D01*
X023189Y016771D01*
X023080Y016835D01*
X022975Y016907D01*
X022877Y016988D01*
X022785Y017075D01*
X022700Y017169D01*
X022622Y017269D01*
X022552Y017375D01*
X022490Y017486D01*
X022437Y017602D01*
X022392Y017721D01*
X022357Y017843D01*
X022331Y017967D01*
X022315Y018093D01*
X022308Y018220D01*
X022311Y018347D01*
X022324Y018473D01*
X022346Y018598D01*
X022377Y018721D01*
X022418Y018842D01*
X022468Y018959D01*
X022526Y019071D01*
X022593Y019179D01*
X022668Y019282D01*
X022750Y019379D01*
X022840Y019469D01*
X022936Y019552D01*
X023038Y019627D01*
X023145Y019695D01*
X020095Y019695D02*
X020202Y019627D01*
X020304Y019552D01*
X020400Y019469D01*
X020490Y019379D01*
X020572Y019282D01*
X020647Y019179D01*
X020714Y019071D01*
X020772Y018959D01*
X020822Y018842D01*
X020863Y018721D01*
X020894Y018598D01*
X020916Y018473D01*
X020929Y018347D01*
X020932Y018220D01*
X020925Y018093D01*
X020909Y017967D01*
X020883Y017843D01*
X020848Y017721D01*
X020803Y017602D01*
X020750Y017486D01*
X020688Y017375D01*
X020618Y017269D01*
X020540Y017169D01*
X020455Y017075D01*
X020363Y016988D01*
X020265Y016907D01*
X020160Y016835D01*
X020051Y016771D01*
X019937Y016715D01*
X019819Y016668D01*
X019697Y016630D01*
X019574Y016601D01*
X019448Y016582D01*
X019322Y016572D01*
X019194Y016572D01*
X019068Y016582D01*
X018942Y016601D01*
X018819Y016630D01*
X018697Y016668D01*
X018579Y016715D01*
X018465Y016771D01*
X018356Y016835D01*
X018251Y016907D01*
X018153Y016988D01*
X018061Y017075D01*
X017976Y017169D01*
X017898Y017269D01*
X017828Y017375D01*
X017766Y017486D01*
X017713Y017602D01*
X017668Y017721D01*
X017633Y017843D01*
X017607Y017967D01*
X017591Y018093D01*
X017584Y018220D01*
X017587Y018347D01*
X017600Y018473D01*
X017622Y018598D01*
X017653Y018721D01*
X017694Y018842D01*
X017744Y018959D01*
X017802Y019071D01*
X017869Y019179D01*
X017944Y019282D01*
X018026Y019379D01*
X018116Y019469D01*
X018212Y019552D01*
X018314Y019627D01*
X018421Y019695D01*
X015371Y019695D02*
X015478Y019627D01*
X015580Y019552D01*
X015676Y019469D01*
X015766Y019379D01*
X015848Y019282D01*
X015923Y019179D01*
X015990Y019071D01*
X016048Y018959D01*
X016098Y018842D01*
X016139Y018721D01*
X016170Y018598D01*
X016192Y018473D01*
X016205Y018347D01*
X016208Y018220D01*
X016201Y018093D01*
X016185Y017967D01*
X016159Y017843D01*
X016124Y017721D01*
X016079Y017602D01*
X016026Y017486D01*
X015964Y017375D01*
X015894Y017269D01*
X015816Y017169D01*
X015731Y017075D01*
X015639Y016988D01*
X015541Y016907D01*
X015436Y016835D01*
X015327Y016771D01*
X015213Y016715D01*
X015095Y016668D01*
X014973Y016630D01*
X014850Y016601D01*
X014724Y016582D01*
X014598Y016572D01*
X014470Y016572D01*
X014344Y016582D01*
X014218Y016601D01*
X014095Y016630D01*
X013973Y016668D01*
X013855Y016715D01*
X013741Y016771D01*
X013632Y016835D01*
X013527Y016907D01*
X013429Y016988D01*
X013337Y017075D01*
X013252Y017169D01*
X013174Y017269D01*
X013104Y017375D01*
X013042Y017486D01*
X012989Y017602D01*
X012944Y017721D01*
X012909Y017843D01*
X012883Y017967D01*
X012867Y018093D01*
X012860Y018220D01*
X012863Y018347D01*
X012876Y018473D01*
X012898Y018598D01*
X012929Y018721D01*
X012970Y018842D01*
X013020Y018959D01*
X013078Y019071D01*
X013145Y019179D01*
X013220Y019282D01*
X013302Y019379D01*
X013392Y019469D01*
X013488Y019552D01*
X013590Y019627D01*
X013697Y019695D01*
X010646Y019695D02*
X010753Y019627D01*
X010855Y019552D01*
X010951Y019469D01*
X011041Y019379D01*
X011123Y019282D01*
X011198Y019179D01*
X011265Y019071D01*
X011323Y018959D01*
X011373Y018842D01*
X011414Y018721D01*
X011445Y018598D01*
X011467Y018473D01*
X011480Y018347D01*
X011483Y018220D01*
X011476Y018093D01*
X011460Y017967D01*
X011434Y017843D01*
X011399Y017721D01*
X011354Y017602D01*
X011301Y017486D01*
X011239Y017375D01*
X011169Y017269D01*
X011091Y017169D01*
X011006Y017075D01*
X010914Y016988D01*
X010816Y016907D01*
X010711Y016835D01*
X010602Y016771D01*
X010488Y016715D01*
X010370Y016668D01*
X010248Y016630D01*
X010125Y016601D01*
X009999Y016582D01*
X009873Y016572D01*
X009745Y016572D01*
X009619Y016582D01*
X009493Y016601D01*
X009370Y016630D01*
X009248Y016668D01*
X009130Y016715D01*
X009016Y016771D01*
X008907Y016835D01*
X008802Y016907D01*
X008704Y016988D01*
X008612Y017075D01*
X008527Y017169D01*
X008449Y017269D01*
X008379Y017375D01*
X008317Y017486D01*
X008264Y017602D01*
X008219Y017721D01*
X008184Y017843D01*
X008158Y017967D01*
X008142Y018093D01*
X008135Y018220D01*
X008138Y018347D01*
X008151Y018473D01*
X008173Y018598D01*
X008204Y018721D01*
X008245Y018842D01*
X008295Y018959D01*
X008353Y019071D01*
X008420Y019179D01*
X008495Y019282D01*
X008577Y019379D01*
X008667Y019469D01*
X008763Y019552D01*
X008865Y019627D01*
X008972Y019695D01*
X005922Y019695D02*
X006029Y019627D01*
X006131Y019552D01*
X006227Y019469D01*
X006317Y019379D01*
X006399Y019282D01*
X006474Y019179D01*
X006541Y019071D01*
X006599Y018959D01*
X006649Y018842D01*
X006690Y018721D01*
X006721Y018598D01*
X006743Y018473D01*
X006756Y018347D01*
X006759Y018220D01*
X006752Y018093D01*
X006736Y017967D01*
X006710Y017843D01*
X006675Y017721D01*
X006630Y017602D01*
X006577Y017486D01*
X006515Y017375D01*
X006445Y017269D01*
X006367Y017169D01*
X006282Y017075D01*
X006190Y016988D01*
X006092Y016907D01*
X005987Y016835D01*
X005878Y016771D01*
X005764Y016715D01*
X005646Y016668D01*
X005524Y016630D01*
X005401Y016601D01*
X005275Y016582D01*
X005149Y016572D01*
X005021Y016572D01*
X004895Y016582D01*
X004769Y016601D01*
X004646Y016630D01*
X004524Y016668D01*
X004406Y016715D01*
X004292Y016771D01*
X004183Y016835D01*
X004078Y016907D01*
X003980Y016988D01*
X003888Y017075D01*
X003803Y017169D01*
X003725Y017269D01*
X003655Y017375D01*
X003593Y017486D01*
X003540Y017602D01*
X003495Y017721D01*
X003460Y017843D01*
X003434Y017967D01*
X003418Y018093D01*
X003411Y018220D01*
X003414Y018347D01*
X003427Y018473D01*
X003449Y018598D01*
X003480Y018721D01*
X003521Y018842D01*
X003571Y018959D01*
X003629Y019071D01*
X003696Y019179D01*
X003771Y019282D01*
X003853Y019379D01*
X003943Y019469D01*
X004039Y019552D01*
X004141Y019627D01*
X004248Y019695D01*
D15*
X002435Y013933D03*
X002435Y012933D03*
X002435Y011933D03*
X002435Y010933D03*
X002435Y009933D03*
X002435Y008933D03*
X050435Y007433D03*
X050435Y006433D03*
X050435Y005433D03*
X050435Y004433D03*
X050435Y003433D03*
X050435Y002433D03*
D16*
X022435Y020683D03*
X021435Y020683D03*
X020435Y020683D03*
X019435Y020683D03*
X018435Y020683D03*
X017435Y020683D03*
X016435Y020683D03*
X015435Y020683D03*
X014435Y020683D03*
X013435Y020683D03*
X012435Y020683D03*
X011435Y020683D03*
X010435Y020683D03*
X009435Y020683D03*
X008435Y020683D03*
X007435Y020683D03*
X006435Y020683D03*
X005435Y020683D03*
X004435Y020683D03*
X003435Y020683D03*
D17*
X010597Y017628D03*
X012171Y017825D03*
X012663Y016447D03*
X012959Y016447D03*
X010597Y015856D03*
X016600Y015217D03*
X018471Y015856D03*
X019061Y015660D03*
X020045Y015856D03*
X021620Y014085D03*
X021620Y012904D03*
X021226Y012116D03*
X018274Y011329D03*
X018274Y010935D03*
X018274Y013297D03*
X009809Y011132D03*
X009809Y009754D03*
X005136Y010933D03*
X009169Y012854D03*
X014730Y007933D03*
X016797Y006801D03*
X017738Y005933D03*
X019258Y006211D03*
X015518Y003849D03*
X013685Y004585D03*
X010793Y004045D03*
X010203Y006211D03*
X011039Y006358D03*
X012565Y006801D03*
X024967Y006358D03*
X037565Y011132D03*
D18*
X035793Y018612D03*
X033431Y020384D03*
X031856Y020581D03*
D19*
X030675Y020581D03*
X028510Y020581D03*
D20*
X028707Y017825D03*
X033431Y017825D03*
X038156Y017825D03*
X042880Y017825D03*
X047604Y017825D03*
X047604Y013888D03*
X042880Y013888D03*
X033431Y013888D03*
X028707Y013888D03*
X023982Y013691D03*
X023982Y017825D03*
X005085Y017825D03*
X005085Y013888D03*
X023982Y009163D03*
X028707Y009163D03*
X033431Y009163D03*
X038156Y009163D03*
X047604Y009163D03*
X047604Y004439D03*
X042880Y004439D03*
X038156Y004439D03*
X033431Y004439D03*
X028707Y004439D03*
X023982Y004439D03*
D21*
X026738Y004144D03*
X019652Y004242D03*
X014534Y004439D03*
X013943Y005620D03*
X009809Y004439D03*
X005085Y004439D03*
X005085Y008376D03*
X009809Y009163D03*
X012959Y008770D03*
X014534Y008967D03*
X020045Y008376D03*
X023982Y010837D03*
X023293Y011132D03*
X021030Y011723D03*
X019652Y013297D03*
X018274Y013888D03*
X021226Y015069D03*
X023786Y015660D03*
X020833Y016250D03*
X019258Y017825D03*
X014534Y017825D03*
X011581Y017825D03*
X009809Y017825D03*
X010990Y014478D03*
X009809Y014282D03*
X007447Y013100D03*
X007250Y012707D03*
X008628Y011329D03*
X014534Y013100D03*
X038156Y013888D03*
X042880Y009163D03*
X049573Y008770D03*
X049376Y005886D03*
X049573Y013494D03*
X049573Y018219D03*
D22*
X050360Y018219D03*
X050360Y013494D03*
X050360Y008770D03*
M02*
